<?xml version="1.0" encoding="UTF-8" standalone="no"?>
<!-- Created with Inkscape (https://www.inkscape.org/) -->
<!-- ClipArt by Arvin61r58 (https://openclipart.org/user-detail/Arvin61r58) -->
<svg
   xmlns:dc="http://purl.org/dc/elements/1.1/"
   xmlns:cc="http://creativecommons.org/ns#"
   xmlns:rdf="http://www.w3.org/1999/02/22-rdf-syntax-ns#"
   xmlns:svg="http://www.w3.org/2000/svg"
   xmlns="http://www.w3.org/2000/svg"
   xmlns:xlink="http://www.w3.org/1999/xlink"
   version="1.1"
   x="0"
   y="0"
   width="1069.4407"
   height="759.38123"
   viewBox="0 0 1069.4407 759.38122"
   id="svg1138">
  <title
     id="title1804">Scheming Boy &amp; Thought Cloud</title>
  <metadata
     id="metadata1142">
    <rdf:RDF>
      <cc:Work
         rdf:about="">
        <dc:format>image/svg+xml</dc:format>
        <dc:type
           rdf:resource="http://purl.org/dc/dcmitype/StillImage" />
        <dc:title>Scheming Boy &amp; Thought Cloud</dc:title>
        <cc:license
           rdf:resource="http://creativecommons.org/publicdomain/zero/1.0/" />
        <dc:subject>
          <rdf:Bag>
            <rdf:li>bubble</rdf:li>
            <rdf:li>cartoon</rdf:li>
            <rdf:li>cloud</rdf:li>
            <rdf:li>comic</rdf:li>
            <rdf:li>onomatopoeia</rdf:li>
            <rdf:li>sleep</rdf:li>
            <rdf:li>snore</rdf:li>
            <rdf:li>snoring</rdf:li>
            <rdf:li>sound</rdf:li>
            <rdf:li>sound effect</rdf:li>
            <rdf:li>text</rdf:li>
            <rdf:li>text art</rdf:li>
            <rdf:li>typography</rdf:li>
            <rdf:li>word</rdf:li>
            <rdf:li>word art</rdf:li>
          </rdf:Bag>
        </dc:subject>
        <dc:description>Sleep Bubble - Sleep Cloud</dc:description>
        <dc:creator>
          <cc:Agent>
            <dc:title>Arvin61r58</dc:title>
          </cc:Agent>
        </dc:creator>
        <dc:publisher>
          <cc:Agent>
            <dc:title>Openclipart.org</dc:title>
          </cc:Agent>
        </dc:publisher>
        <dc:identifier>https://openclipart.org/</dc:identifier>
        <dc:source>https://openclipart.org/user-detail/Arvin61r58</dc:source>
        <dc:contributor>
          <cc:Agent>
            <dc:title></dc:title>
          </cc:Agent>
        </dc:contributor>
      </cc:Work>
      <cc:License
         rdf:about="http://creativecommons.org/publicdomain/zero/1.0/">
        <cc:permits
           rdf:resource="http://creativecommons.org/ns#Reproduction" />
        <cc:permits
           rdf:resource="http://creativecommons.org/ns#Distribution" />
        <cc:permits
           rdf:resource="http://creativecommons.org/ns#DerivativeWorks" />
      </cc:License>
    </rdf:RDF>
  </metadata>
  <defs
     id="defs1053">
    <linearGradient
       gradientUnits="userSpaceOnUse"
       y2="97.223587"
       x2="649.4198"
       y1="421.93411"
       x1="151.22675"
       id="linearGradient8076"
       xlink:href="#linearGradient8070"
       gradientTransform="matrix(1.45101,0,0,1.4269835,112.79417,531.38741)" />
    <linearGradient
       id="linearGradient8070">
      <stop
         style="stop-color:#fbfbfb;stop-opacity:1"
         offset="0"
         id="stop8074" />
      <stop
         style="stop-color:#e8e8e8;stop-opacity:1"
         offset="1"
         id="stop8072" />
    </linearGradient>
    <linearGradient
       id="linearGradient1900">
      <stop
         id="stop1890"
         offset="0"
         stop-color="#007bcb" />
      <stop
         id="stop1888"
         offset="0.1000006"
         stop-color="#0083d7" />
      <stop
         id="stop1886"
         offset="0.19999969"
         stop-color="#008be2" />
      <stop
         id="stop1884"
         offset="0.30000028"
         stop-color="#0593eb" />
      <stop
         id="stop1882"
         offset="0.40000087"
         stop-color="#0c99f2" />
      <stop
         id="stop1880"
         offset="0.50000006"
         stop-color="#16a0f8" />
      <stop
         id="stop1878"
         offset="0.60000062"
         stop-color="#22a5fc" />
      <stop
         id="stop1876"
         offset="0.69999969"
         stop-color="#30abfc" />
      <stop
         id="stop1874"
         offset="0.80000019"
         stop-color="#3eb0fc" />
      <stop
         id="stop1872"
         offset="0.89999938"
         stop-color="#4ab5fc" />
      <stop
         id="stop1870"
         offset="1"
         stop-color="#51b8fc" />
    </linearGradient>
    <linearGradient
       gradientTransform="translate(6.4339701,-12.592451)"
       gradientUnits="userSpaceOnUse"
       y2="538.70575"
       x2="1102.0728"
       y1="543.60657"
       x1="353.50867"
       id="linearGradient1936"
       xlink:href="#linearGradient1900" />
  </defs>
  <flowRoot
     transform="translate(-174.35724,-368.98168)"
     xml:space="preserve"
     id="flowRoot1903"
     style="font-style:normal;font-variant:normal;font-weight:normal;font-stretch:normal;font-size:64px;line-height:1.25;font-family:'Mc Garey';-inkscape-font-specification:'Mc Garey';font-variant-ligatures:normal;font-variant-caps:normal;font-variant-numeric:normal;font-feature-settings:normal;text-align:start;writing-mode:lr-tb;text-anchor:start;opacity:1;fill:none;fill-opacity:1;stroke:none;stroke-width:4;stroke-miterlimit:4;stroke-dasharray:none;stroke-opacity:1;paint-order:normal"><flowRegion
       id="flowRegion1905"
       style="font-style:normal;font-variant:normal;font-weight:normal;font-stretch:normal;font-size:64px;font-family:'Mc Garey';-inkscape-font-specification:'Mc Garey'"><rect
         id="rect1907"
         width="694"
         height="441"
         x="609"
         y="123.3446"
         style="font-style:normal;font-variant:normal;font-weight:normal;font-stretch:normal;font-size:64px;font-family:'Mc Garey';-inkscape-font-specification:'Mc Garey'" /></flowRegion><flowPara
       id="flowPara1909" /></flowRoot>  <path
     id="path843"
     d="m -301.66193,-134.54223 0.0762,0.10352 c -0.0202,-0.0284 -0.0442,-0.0518 -0.0644,-0.0801 -0.0467,-0.0552 0.0333,0.0365 -0.0117,-0.0234 z"
     style="color:#000000;font-style:normal;font-variant:normal;font-weight:normal;font-stretch:normal;font-size:medium;line-height:1;font-family:'Hank BT';-inkscape-font-specification:'Hank BT';font-variant-ligatures:normal;font-variant-position:normal;font-variant-caps:normal;font-variant-numeric:normal;font-variant-alternates:normal;font-feature-settings:normal;text-indent:0;text-align:center;text-decoration:none;text-decoration-line:none;text-decoration-style:solid;text-decoration-color:#000000;letter-spacing:normal;word-spacing:normal;text-transform:none;writing-mode:lr-tb;direction:ltr;text-orientation:mixed;dominant-baseline:auto;baseline-shift:baseline;text-anchor:middle;white-space:normal;shape-padding:0;clip-rule:nonzero;display:inline;overflow:visible;visibility:visible;opacity:1;isolation:auto;mix-blend-mode:normal;color-interpolation:sRGB;color-interpolation-filters:linearRGB;solid-color:#000000;solid-opacity:1;vector-effect:none;fill:#000000;fill-opacity:1;fill-rule:nonzero;stroke:none;stroke-width:10;stroke-linecap:square;stroke-linejoin:miter;stroke-miterlimit:4;stroke-dasharray:none;stroke-dashoffset:0;stroke-opacity:1;paint-order:normal;color-rendering:auto;image-rendering:auto;shape-rendering:auto;text-rendering:auto;enable-background:accumulate" />
  <g
     transform="translate(-169.06624,-271.11331)"
     id="g3356">
    <title
       id="title3358">Sleep Bubble  --  by Arvin61r58</title>
    <g
       id="g3337">
      <g
         style="stroke-width:1.12235248"
         transform="matrix(1.0909974,0,0,0.72764198,3.4717494,-135.3478)"
         id="g1928">
        <path
           style="fill:url(#linearGradient8076);fill-opacity:1;fill-rule:nonzero;stroke:none;stroke-width:6.5994339;stroke-linecap:butt;stroke-linejoin:miter;stroke-miterlimit:4;stroke-dasharray:none;stroke-opacity:1"
           d="m 668.43389,596.30946 c -33.59241,3.90629 -64.35187,21.65227 -88.04789,45.27418 -3.63671,4.017 -10.23982,4.31663 -14.40889,0.96257 -8.9093,-4.66762 -17.47438,-10.22246 -27.23902,-12.98502 -27.60646,-10.31154 -59.44854,-11.88624 -86.74947,0.26682 -23.63071,9.92201 -43.86068,27.29995 -58.07929,48.54973 -5.40837,3.10612 -11.0482,-1.19818 -15.85555,-3.49536 -9.84452,-5.39402 -21.68549,-6.81794 -32.5315,-3.93586 -23.88263,4.16272 -45.11415,18.10687 -61.55035,35.52123 -13.87962,15.5806 -20.20254,37.63402 -16.25915,58.17592 3.00917,26.17503 7.82475,52.16179 14.4924,77.64728 5.25408,16.41182 12.94272,32.46234 24.78569,45.14417 4.11459,3.20136 9.7883,7.20593 8.49076,13.20823 -1.7248,5.75134 -8.46812,6.93703 -13.34024,8.86359 -5.91898,2.08637 -11.20174,5.83584 -14.87157,10.9483 -18.27771,20.72665 -30.38603,46.47506 -36.67523,73.27068 -4.24314,22.23998 1.99414,45.43818 13.86112,64.38178 11.40731,19.6999 27.75208,36.4669 47.0128,48.5718 6.76191,2.7472 14.5979,2.8349 20.64858,7.2553 3.77666,4.9334 -0.58617,10.7788 -0.39386,16.1195 0.384,7.7565 2.94177,15.2398 5.53184,22.4944 8.49731,20.3119 26.6158,35.198 46.36732,43.9796 34.56133,14.7607 77.12307,8.2744 105.58821,-16.3265 5.54643,-3.9747 17.83148,-22.9796 21.02406,-13.607 21.40235,38.5444 63.34719,65.353 107.61791,66.7595 11.1416,-0.6992 23.55163,-0.8329 32.47318,-8.5506 8.99059,-8.9708 12.6784,-22.7856 24.30578,-29.1443 8.0624,-3.9914 17.11066,-0.2659 24.69351,3.0758 11.18559,5.162 22.37979,12.7172 35.26639,11.5831 32.1973,-1.6401 63.1738,-20.6262 78.5295,-49.1006 3.3318,-2.3293 6.7948,1.433 8.5232,4.0496 7.3813,10.0382 13.522,21.3453 23.6528,28.9849 15.9711,14.2973 38.54,22.4559 59.8773,17.7026 50.4979,1.7856 31.6153,-65.35 48.6987,-69.7831 11.3929,-2.9307 22.8315,1.4589 34.1806,2.4579 10.3822,1.5357 21.58697,0.088 30.32137,-6.0698 33.8938,-19.19 54.1717,-58.8522 51.7904,-97.4986 -0.5664,-15.4733 -1.7674,-31.6279 -9.1881,-45.53295 -6.1767,-10.62071 -15.1724,-20.68728 -15.7008,-33.56141 -0.1452,-10.22976 8.0444,-18.49481 16.8891,-22.3881 11.1161,-6.09533 24.1366,-10.54405 31.5265,-21.53779 12.6544,-16.34843 22.2679,-36.51771 20.934,-57.64085 -1.7546,-22.76794 -14.3357,-43.12749 -29.5102,-59.54832 -7.8789,-8.28697 -15.7816,-16.62446 -22.531,-25.86696 -3.3388,-5.00736 -3.1462,-11.69985 -0.015,-16.75883 5.26,-10.47078 6.4262,-22.39997 7.1119,-33.93422 0.8912,-28.64892 -8.5905,-57.73046 -26.9055,-79.85488 -9.2719,-11.13181 -21.808,-20.9674 -36.745,-22.1528 -21.90387,-2.2819 -44.15917,9.50941 -55.45377,28.26568 -2.292,3.15865 -3.925,6.96957 -6.5501,9.77154 -3.8402,1.53787 -6.6383,-2.70869 -9.3318,-4.69546 -16.3154,-13.97607 -35.516,-25.48991 -56.9508,-29.13812 -33.2851,-6.8317 -70.1528,1.09414 -95.8351,23.88911 -2.2071,1.85485 -3.7805,4.9672 -6.5807,5.83691 -5.4216,-0.0489 -7.7964,-5.8553 -11.5243,-8.85975 -22.2104,-22.46515 -49.0631,-41.63648 -80.01377,-49.57069 -5.05725,-0.96067 -10.19389,-1.77769 -15.35873,-1.47385 z"
           id="path9" />
        <path
           id="path971"
           d="m 654.94989,571.15361 c -35.14002,4.14425 -67.31658,22.97126 -92.10426,48.03215 -3.80426,4.26171 -10.71158,4.57958 -15.07272,1.0212 -9.31976,-4.95196 -18.27942,-10.84519 -28.49393,-13.77603 -28.8783,-10.93969 -62.18734,-12.61031 -90.74604,0.28308 -24.71935,10.52643 -45.88132,28.96299 -60.75501,51.50724 -5.65753,3.29533 -11.55718,-1.27117 -16.58601,-3.7083 -10.29805,-5.7226 -22.68453,-7.23326 -34.03023,-4.17561 -24.9829,4.4163 -47.19256,19.20989 -64.38598,37.68509 -14.51906,16.52973 -21.13328,39.92658 -17.00821,61.71984 3.1478,27.76953 8.18523,55.33934 15.16007,82.37733 5.49613,17.41158 13.53899,34.43984 25.92756,47.89422 4.30415,3.39639 10.23926,7.64489 8.88193,14.01284 -1.80426,6.10168 -8.85823,7.35961 -13.95482,9.40353 -6.19166,2.21347 -11.71781,6.19134 -15.55671,11.61525 -19.11976,21.98926 -31.78591,49.3062 -38.36486,77.73412 -4.43863,23.59474 2.08602,48.20614 14.49971,68.30374 11.93284,20.8999 29.03062,38.6883 49.17868,51.5306 7.07343,2.9146 15.27043,3.0076 21.59985,7.6974 3.95067,5.2338 -0.61315,11.4354 -0.41199,17.1014 0.40169,8.229 3.07729,16.1681 5.7867,23.8647 8.88878,21.5492 27.84197,37.3422 48.50345,46.6587 36.15358,15.6599 80.67613,8.7784 110.45268,-17.3211 5.80197,-4.2168 18.65298,-24.3794 21.99264,-14.4359 22.38835,40.8924 66.26562,69.3341 112.5759,70.8263 11.65488,-0.7418 24.63664,-0.8836 33.96921,-9.0714 9.40481,-9.5173 13.26249,-24.1738 25.42556,-30.9198 8.43383,-4.2345 17.89896,-0.2821 25.83113,3.2633 11.7009,5.4764 23.41094,13.4918 36.89124,12.2887 33.6806,-1.7401 66.0842,-21.8828 82.1474,-52.0917 3.4853,-2.4712 7.1078,1.5203 8.9159,4.2962 7.7212,10.6497 14.1448,22.6456 24.7424,30.7506 16.7069,15.1683 40.3156,23.8239 62.6359,18.781 52.8243,1.8944 33.0718,-69.3309 50.9422,-74.034 11.9178,-3.1093 23.8833,1.5477 35.7553,2.6076 10.86047,1.6293 22.58147,0.093 31.71827,-6.4396 35.4553,-20.359 56.6674,-62.4373 54.1764,-103.4379 -0.5924,-16.4159 -1.8488,-33.5546 -9.6114,-48.30673 -6.4613,-11.26768 -15.8713,-21.94749 -16.4241,-35.60587 -0.1519,-10.85292 8.415,-19.62146 17.6672,-23.75192 11.6282,-6.46663 25.2485,-11.18635 32.979,-22.84981 13.2373,-17.34432 23.2937,-38.74227 21.8984,-61.15217 -1.8354,-24.15489 -14.9962,-45.75469 -30.8698,-63.17583 -8.2419,-8.79178 -16.5087,-17.63718 -23.5691,-27.44269 -3.4925,-5.3124 -3.2911,-12.41258 -0.015,-17.77974 5.5024,-11.10863 6.7224,-23.7645 7.4397,-36.0014 0.9321,-30.39415 -8.9865,-61.24724 -28.1451,-84.71941 -9.6991,-11.80994 -22.8128,-22.24469 -38.4378,-23.5023 -22.91317,-2.42091 -46.19367,10.0887 -58.00867,29.98755 -2.3975,3.35106 -4.1058,7.39414 -6.8518,10.3668 -4.0171,1.63154 -6.9441,-2.87371 -9.7618,-4.98151 -17.067,-14.82744 -37.1522,-27.04268 -59.5744,-30.91312 -34.8186,-7.24787 -73.3848,1.16079 -100.2502,25.34436 -2.3089,1.96784 -3.9548,5.26979 -6.8839,6.19248 -5.6715,-0.0518 -8.1558,-6.21198 -12.0552,-9.39946 -23.2337,-23.83366 -51.32366,-44.17285 -83.70023,-52.5904 -5.29024,-1.01919 -10.66351,-1.88598 -16.0663,-1.56362 z"
           style="fill:none;fill-opacity:1;fill-rule:nonzero;stroke:#000000;stroke-width:11.223526;stroke-linecap:butt;stroke-linejoin:miter;stroke-miterlimit:4;stroke-dasharray:none;stroke-opacity:1" />
      </g>
      <g
         transform="translate(-503.9419,666.13009)"
         id="g3320">
        <path
           style="fill:#d4d4d4"
           id="path1103"
           d="m 678.00814,357.79919 c 0.144,-0.158 0.288,-0.317 0.433,-0.475 0.488,0.658 0.975,1.315 1.463,1.971 -1.313,0.364 -1.427,-0.791 -1.896,-1.496" />
        <path
           style="fill:#f2f1e6;fill-opacity:1;fill-rule:nonzero;stroke:none;stroke-width:5.82120132;stroke-linecap:butt;stroke-linejoin:miter;stroke-miterlimit:4;stroke-dasharray:none;stroke-opacity:1"
           d="m 987.62849,138.31081 -0.0953,2.70113 -1.52363,5.30582 -2.95203,4.82346 -4.09472,4.34111 -5.1422,3.66585 -6.09451,2.89404 -6.8563,2.02587 -7.42765,1.15764 -3.90425,0.0963 -3.90429,-0.0963 -7.42764,-1.15764 -6.8563,-2.02587 -6.09449,-2.89404 -5.14222,-3.66585 -4.09473,-4.34111 -2.95201,-4.82346 -1.52364,-5.30582 -0.0953,-2.70113 0.0953,-2.7976 1.52364,-5.30581 2.95201,-4.82346 4.09473,-4.3411 5.14222,-3.66582 6.09449,-2.89409 6.8563,-2.02584 7.42764,-1.15763 h 3.90429 3.90425 l 7.42765,1.15763 6.8563,2.02584 6.09451,2.89409 5.1422,3.66582 4.09472,4.3411 2.95203,4.82346 1.52363,5.30581 z"
           id="path973" />
        <path
           id="path975"
           d="m 727.16993,325.06138 -0.0468,1.21204 -0.74858,2.38084 -1.45038,2.16436 -2.01183,1.94795 -2.52649,1.64492 -2.99435,1.29864 -3.36864,0.90902 -3.64936,0.51947 -1.91826,0.0434 -1.91825,-0.0434 -3.64936,-0.51947 -3.36864,-0.90902 -2.99435,-1.29864 -2.52648,-1.64492 -2.01182,-1.94795 -1.4504,-2.16436 -0.74858,-2.38084 -0.0467,-1.21204 0.0467,-1.25534 0.74858,-2.38084 1.4504,-2.16438 2.01182,-1.94795 2.52648,-1.64492 2.99435,-1.29864 3.36864,-0.90904 3.64936,-0.51944 h 1.91825 1.91826 l 3.64936,0.51944 3.36864,0.90904 2.99435,1.29864 2.52649,1.64492 2.01183,1.94795 1.45038,2.16438 0.74858,2.38084 z"
           style="fill:#f2f1e6;fill-opacity:1;fill-rule:nonzero;stroke:none;stroke-width:3.60000062;stroke-linecap:butt;stroke-linejoin:miter;stroke-miterlimit:4;stroke-dasharray:none;stroke-opacity:1" />
        <path
           id="path977"
           d="m 805.5141,299.37066 c 0,0 -0.0583,1.55882 -0.0583,1.55882 0,0 -0.93285,3.06201 -0.93285,3.06201 0,0 -1.80736,2.78362 -1.80736,2.78362 0,0 -2.50699,2.50528 -2.50699,2.50528 0,0 -3.14833,2.11556 -3.14833,2.11556 0,0 -3.73134,1.67019 -3.73134,1.67019 0,0 -4.19776,1.1691 -4.19776,1.1691 0,0 -4.54756,0.66809 -4.54756,0.66809 0,0 -2.3904,0.0556 -2.3904,0.0556 0,0 -2.39038,-0.0556 -2.39038,-0.0556 0,0 -4.54757,-0.66809 -4.54757,-0.66809 0,0 -4.19777,-1.1691 -4.19777,-1.1691 0,0 -3.73133,-1.67019 -3.73133,-1.67019 0,0 -3.14832,-2.11556 -3.14832,-2.11556 0,0 -2.50698,-2.50528 -2.50698,-2.50528 0,0 -1.80738,-2.78362 -1.80738,-2.78362 0,0 -0.93284,-3.06201 -0.93284,-3.06201 0,0 -0.0583,-1.55882 -0.0583,-1.55882 0,0 0.0583,-1.61453 0.0583,-1.61453 0,0 0.93284,-3.06201 0.93284,-3.06201 0,0 1.80738,-2.78362 1.80738,-2.78362 0,0 2.50698,-2.50528 2.50698,-2.50528 0,0 3.14832,-2.11555 3.14832,-2.11555 0,0 3.73133,-1.6702 3.73133,-1.6702 0,0 4.19777,-1.16912 4.19777,-1.16912 0,0 4.54757,-0.66807 4.54757,-0.66807 0,0 2.39038,0 2.39038,0 0,0 2.3904,0 2.3904,0 0,0 4.54756,0.66807 4.54756,0.66807 0,0 4.19776,1.16912 4.19776,1.16912 0,0 3.73134,1.6702 3.73134,1.6702 0,0 3.14833,2.11555 3.14833,2.11555 0,0 2.50699,2.50528 2.50699,2.50528 0,0 1.80736,2.78362 1.80736,2.78362 0,0 0.93285,3.06201 0.93285,3.06201 0,0 0.0583,1.61453 0.0583,1.61453 0,0 0,0 0,0"
           style="fill:#f2f1e6;fill-opacity:1;fill-rule:nonzero;stroke:none;stroke-width:3.67500067;stroke-linecap:butt;stroke-linejoin:miter;stroke-miterlimit:4;stroke-dasharray:none;stroke-opacity:1" />
        <path
           id="path979"
           d="m 879.76949,264.05247 c 0,0 -0.0723,1.94869 -0.0723,1.94869 0,0 -1.15616,3.8278 -1.15616,3.8278 0,0 -2.24004,3.47982 -2.24004,3.47982 0,0 -3.10716,3.13183 -3.10716,3.13183 0,0 -3.90201,2.64465 -3.90201,2.64465 0,0 -4.62462,2.0879 -4.62462,2.0879 0,0 -5.20268,1.46152 -5.20268,1.46152 0,0 -5.63624,0.83516 -5.63624,0.83516 0,0 -2.96264,0.0697 -2.96264,0.0697 0,0 -2.96264,-0.0697 -2.96264,-0.0697 0,0 -5.63625,-0.83516 -5.63625,-0.83516 0,0 -5.20266,-1.46152 -5.20266,-1.46152 0,0 -4.62463,-2.0879 -4.62463,-2.0879 0,0 -3.90201,-2.64465 -3.90201,-2.64465 0,0 -3.10717,-3.13183 -3.10717,-3.13183 0,0 -2.24004,-3.47982 -2.24004,-3.47982 0,0 -1.15615,-3.8278 -1.15615,-3.8278 0,0 -0.0723,-1.94869 -0.0723,-1.94869 0,0 0.0723,-2.01831 0.0723,-2.01831 0,0 1.15615,-3.82781 1.15615,-3.82781 0,0 2.24004,-3.47982 2.24004,-3.47982 0,0 3.10717,-3.13183 3.10717,-3.13183 0,0 3.90201,-2.64466 3.90201,-2.64466 0,0 4.62463,-2.08789 4.62463,-2.08789 0,0 5.20266,-1.46151 5.20266,-1.46151 0,0 5.63625,-0.83517 5.63625,-0.83517 0,0 2.96264,0 2.96264,0 0,0 2.96264,0 2.96264,0 0,0 5.63624,0.83517 5.63624,0.83517 0,0 5.20268,1.46151 5.20268,1.46151 0,0 4.62462,2.08789 4.62462,2.08789 0,0 3.90201,2.64466 3.90201,2.64466 0,0 3.10716,3.13183 3.10716,3.13183 0,0 2.24004,3.47982 2.24004,3.47982 0,0 1.15616,3.82781 1.15616,3.82781 0,0 0.0723,2.01831 0.0723,2.01831 0,0 0,0 0,0"
           style="fill:#f2f1e6;fill-opacity:1;fill-rule:nonzero;stroke:none;stroke-width:3.67500067;stroke-linecap:butt;stroke-linejoin:miter;stroke-miterlimit:4;stroke-dasharray:none;stroke-opacity:1" />
        <path
           id="path981"
           d="m 934.5148,210.67104 c 0,0 -0.0857,2.33856 -0.0857,2.33856 0,0 -1.37035,4.5936 -1.37035,4.5936 0,0 -2.65507,4.17601 -2.65507,4.17601 0,0 -3.68285,3.75841 -3.68285,3.75841 0,0 -4.62495,3.17376 -4.62495,3.17376 0,0 -5.48143,2.50558 -5.48143,2.50558 0,0 -6.16661,1.75393 -6.16661,1.75393 0,0 -6.68051,1.00225 -6.68051,1.00225 0,0 -3.51153,0.0835 -3.51153,0.0835 0,0 -3.51155,-0.0835 -3.51155,-0.0835 0,0 -6.68049,-1.00225 -6.68049,-1.00225 0,0 -6.16662,-1.75393 -6.16662,-1.75393 0,0 -5.48143,-2.50558 -5.48143,-2.50558 0,0 -4.62494,-3.17376 -4.62494,-3.17376 0,0 -3.68285,-3.75841 -3.68285,-3.75841 0,0 -2.65508,-4.17601 -2.65508,-4.17601 0,0 -1.37035,-4.5936 -1.37035,-4.5936 0,0 -0.0856,-2.33856 -0.0856,-2.33856 0,0 0.0856,-2.42209 0.0856,-2.42209 0,0 1.37035,-4.59359 1.37035,-4.59359 0,0 2.65508,-4.17601 2.65508,-4.17601 0,0 3.68285,-3.75839 3.68285,-3.75839 0,0 4.62494,-3.17374 4.62494,-3.17374 0,0 5.48143,-2.50562 5.48143,-2.50562 0,0 6.16662,-1.75393 6.16662,-1.75393 0,0 6.68049,-1.00222 6.68049,-1.00222 0,0 3.51155,0 3.51155,0 0,0 3.51153,0 3.51153,0 0,0 6.68051,1.00222 6.68051,1.00222 0,0 6.16661,1.75393 6.16661,1.75393 0,0 5.48143,2.50562 5.48143,2.50562 0,0 4.62495,3.17374 4.62495,3.17374 0,0 3.68285,3.75839 3.68285,3.75839 0,0 2.65507,4.17601 2.65507,4.17601 0,0 1.37035,4.59359 1.37035,4.59359 0,0 0.0857,2.42209 0.0857,2.42209 0,0 0,0 0,0"
           style="fill:#f2f1e6;fill-opacity:1;fill-rule:nonzero;stroke:none;stroke-width:3.67500067;stroke-linecap:butt;stroke-linejoin:miter;stroke-miterlimit:4;stroke-dasharray:none;stroke-opacity:1" />
        <path
           id="path15"
           d="m 992.50359,133.53006 -0.11384,3.17922 -1.82144,6.2449 -3.52902,5.67714 -4.89508,5.10945 -6.14734,4.31466 -7.28572,3.40629 -8.19644,2.38441 -8.87947,1.36253 -4.6674,0.11355 -4.66742,-0.11355 -8.87947,-1.36253 -8.19644,-2.38441 -7.28572,-3.40629 -6.14731,-4.31466 -4.8951,-5.10945 -3.52902,-5.67714 -1.82144,-6.2449 -0.11385,-3.17922 0.11385,-3.29276 1.82144,-6.24488 3.52902,-5.67716 4.8951,-5.10946 6.14731,-4.31463 7.28572,-3.4063 8.19644,-2.38442 8.87947,-1.36251 h 4.66742 4.6674 l 8.87947,1.36251 8.19644,2.38442 7.28572,3.4063 6.14734,4.31463 4.89508,5.10946 3.52902,5.67716 1.82144,6.24488 z"
           style="fill:none;fill-opacity:1;fill-rule:nonzero;stroke:#000000;stroke-width:7;stroke-linecap:butt;stroke-linejoin:miter;stroke-miterlimit:4;stroke-dasharray:none;stroke-opacity:1" />
        <path
           style="fill:none;fill-opacity:1;fill-rule:nonzero;stroke:#000000;stroke-width:3.75000072;stroke-linecap:butt;stroke-linejoin:miter;stroke-miterlimit:4;stroke-dasharray:none;stroke-opacity:1"
           d="m 728.72948,322.23217 -0.0545,1.49498 -0.87274,2.93656 -1.69094,2.66958 -2.3455,2.40264 -2.94553,2.02889 -3.49098,1.60176 -3.92735,1.12122 -4.25463,0.64072 -2.23641,0.0534 -2.23641,-0.0534 -4.25463,-0.64072 -3.92735,-1.12122 -3.49098,-1.60176 -2.94552,-2.02889 -2.3455,-2.40264 -1.69094,-2.66958 -0.87275,-2.93656 -0.0546,-1.49498 0.0546,-1.54836 0.87275,-2.93657 1.69094,-2.66959 2.3455,-2.40264 2.94552,-2.02889 3.49098,-1.60175 3.92735,-1.12124 4.25463,-0.64069 h 2.23641 2.23641 l 4.25463,0.64069 3.92735,1.12124 3.49098,1.60175 2.94553,2.02889 2.3455,2.40264 1.69094,2.66959 0.87274,2.93657 z"
           id="path16311" />
        <path
           style="fill:none;fill-opacity:1;fill-rule:nonzero;stroke:#000000;stroke-width:3.75000072;stroke-linecap:butt;stroke-linejoin:miter;stroke-miterlimit:4;stroke-dasharray:none;stroke-opacity:1"
           d="m 806.46596,295.79867 c 0,0 -0.0694,1.91603 -0.0694,1.91603 0,0 -1.10992,3.76365 -1.10992,3.76365 0,0 -2.15045,3.42147 -2.15045,3.42147 0,0 -2.9829,3.07935 -2.9829,3.07935 0,0 -3.74598,2.60033 -3.74598,2.60033 0,0 -4.43966,2.05288 -4.43966,2.05288 0,0 -4.99463,1.43703 -4.99463,1.43703 0,0 -5.41083,0.82118 -5.41083,0.82118 0,0 -2.84417,0.0684 -2.84417,0.0684 0,0 -2.84416,-0.0684 -2.84416,-0.0684 0,0 -5.41083,-0.82118 -5.41083,-0.82118 0,0 -4.99463,-1.43703 -4.99463,-1.43703 0,0 -4.43966,-2.05288 -4.43966,-2.05288 0,0 -3.74597,-2.60033 -3.74597,-2.60033 0,0 -2.9829,-3.07935 -2.9829,-3.07935 0,0 -2.15047,-3.42147 -2.15047,-3.42147 0,0 -1.10992,-3.76365 -1.10992,-3.76365 0,0 -0.0694,-1.91602 -0.0694,-1.91602 0,0 0.0694,-1.98448 0.0694,-1.98448 0,0 1.10992,-3.76363 1.10992,-3.76363 0,0 2.15047,-3.42149 2.15047,-3.42149 0,0 2.9829,-3.07934 2.9829,-3.07934 0,0 3.74597,-2.60033 3.74597,-2.60033 0,0 4.43966,-2.05289 4.43966,-2.05289 0,0 4.99463,-1.43702 4.99463,-1.43702 0,0 5.41083,-0.82116 5.41083,-0.82116 0,0 2.84416,0 2.84416,0 0,0 2.84417,0 2.84417,0 0,0 5.41083,0.82116 5.41083,0.82116 0,0 4.99463,1.43702 4.99463,1.43702 0,0 4.43966,2.05289 4.43966,2.05289 0,0 3.74598,2.60033 3.74598,2.60033 0,0 2.9829,3.07934 2.9829,3.07934 0,0 2.15045,3.42149 2.15045,3.42149 0,0 1.10992,3.76363 1.10992,3.76363 0,0 0.0694,1.98448 0.0694,1.98448 0,0 0,0 0,0"
           id="path16413" />
        <path
           style="fill:none;fill-opacity:1;fill-rule:nonzero;stroke:#000000;stroke-width:4;stroke-linecap:butt;stroke-linejoin:miter;stroke-miterlimit:4;stroke-dasharray:none;stroke-opacity:1"
           d="m 880.94924,260.1685 c 0,0 -0.0843,2.33709 -0.0843,2.33709 0,0 -1.34709,4.59072 -1.34709,4.59072 0,0 -2.60997,4.17338 -2.60997,4.17338 0,0 -3.6203,3.75602 -3.6203,3.75602 0,0 -4.54642,3.17177 -4.54642,3.17177 0,0 -5.38836,2.50404 -5.38836,2.50404 0,0 -6.06189,1.75281 -6.06189,1.75281 0,0 -6.56705,1.00162 -6.56705,1.00162 0,0 -3.4519,0.0836 -3.4519,0.0836 0,0 -3.45192,-0.0836 -3.45192,-0.0836 0,0 -6.56706,-1.00162 -6.56706,-1.00162 0,0 -6.06188,-1.75281 -6.06188,-1.75281 0,0 -5.38835,-2.50404 -5.38835,-2.50404 0,0 -4.54643,-3.17177 -4.54643,-3.17177 0,0 -3.62028,-3.75602 -3.62028,-3.75602 0,0 -2.61,-4.17338 -2.61,-4.17338 0,0 -1.34707,-4.59072 -1.34707,-4.59072 0,0 -0.0843,-2.33709 -0.0843,-2.33709 0,0 0.0843,-2.42058 0.0843,-2.42058 0,0 1.34707,-4.59072 1.34707,-4.59072 0,0 2.61,-4.17338 2.61,-4.17338 0,0 3.62028,-3.75604 3.62028,-3.75604 0,0 4.54643,-3.17177 4.54643,-3.17177 0,0 5.38835,-2.50402 5.38835,-2.50402 0,0 6.06188,-1.75281 6.06188,-1.75281 0,0 6.56706,-1.00163 6.56706,-1.00163 0,0 3.45192,0 3.45192,0 0,0 3.4519,0 3.4519,0 0,0 6.56705,1.00163 6.56705,1.00163 0,0 6.06189,1.75281 6.06189,1.75281 0,0 5.38836,2.50402 5.38836,2.50402 0,0 4.54642,3.17177 4.54642,3.17177 0,0 3.6203,3.75604 3.6203,3.75604 0,0 2.60997,4.17338 2.60997,4.17338 0,0 1.34709,4.59072 1.34709,4.59072 0,0 0.0843,2.42058 0.0843,2.42058 0,0 0,0 0,0"
           id="path16415" />
        <path
           style="fill:none;fill-opacity:1;fill-rule:nonzero;stroke:#000000;stroke-width:4.75;stroke-linecap:butt;stroke-linejoin:miter;stroke-miterlimit:4;stroke-dasharray:none;stroke-opacity:1"
           d="m 935.91312,206.4751 c 0,0 -0.099,2.75816 -0.099,2.75816 0,0 -1.58425,5.41781 -1.58425,5.41781 0,0 -3.0695,4.92527 -3.0695,4.92527 0,0 -4.2577,4.43275 -4.2577,4.43275 0,0 -5.34687,3.74321 -5.34687,3.74321 0,0 -6.33704,2.95517 -6.33704,2.95517 0,0 -7.12915,2.0686 -7.12915,2.0686 0,0 -7.72328,1.18208 -7.72328,1.18208 0,0 -4.05966,0.0986 -4.05966,0.0986 0,0 -4.05966,-0.0986 -4.05966,-0.0986 0,0 -7.72326,-1.18208 -7.72326,-1.18208 0,0 -7.12917,-2.0686 -7.12917,-2.0686 0,0 -6.33703,-2.95517 -6.33703,-2.95517 0,0 -5.34686,-3.74321 -5.34686,-3.74321 0,0 -4.2577,-4.43275 -4.2577,-4.43275 0,0 -3.06951,-4.92526 -3.06951,-4.92526 0,0 -1.58426,-5.41782 -1.58426,-5.41782 0,0 -0.099,-2.75816 -0.099,-2.75816 0,0 0.099,-2.85666 0.099,-2.85666 0,0 1.58426,-5.41779 1.58426,-5.41779 0,0 3.06951,-4.92528 3.06951,-4.92528 0,0 4.2577,-4.43274 4.2577,-4.43274 0,0 5.34686,-3.74319 5.34686,-3.74319 0,0 6.33703,-2.95518 6.33703,-2.95518 0,0 7.12917,-2.06862 7.12917,-2.06862 0,0 7.72326,-1.18206 7.72326,-1.18206 0,0 4.05966,0 4.05966,0 0,0 4.05966,0 4.05966,0 0,0 7.72328,1.18206 7.72328,1.18206 0,0 7.12915,2.06862 7.12915,2.06862 0,0 6.33704,2.95518 6.33704,2.95518 0,0 5.34687,3.74319 5.34687,3.74319 0,0 4.2577,4.43274 4.2577,4.43274 0,0 3.0695,4.92528 3.0695,4.92528 0,0 1.58425,5.41779 1.58425,5.41779 0,0 0.099,2.85666 0.099,2.85666 0,0 0,0 0,0"
           id="path16417" />
      </g>
    </g>
    <path
       id="path3487"
       d="m 362.19725,527.48547 c 0,0 0.004,0.007 0.004,0.007 -1.94793,2.2148 -3.80866,6.43801 -3.68907,9.69027 0.11682,3.17673 1.13848,6.10862 2.78607,8.58627 0.82432,1.2396 1.95715,2.79076 3.43014,4.71373 1.40195,1.82456 2.4139,3.21145 2.98013,4.06298 2.82374,4.24629 4.72798,6.86743 6.9672,8.15154 0,0 0.0322,0.0204 0.0322,0.0204 0,0 0.0331,0.0175 0.0331,0.0175 2.33618,1.23317 5.48755,-0.32374 7.5599,-2.6801 0.85061,-0.96713 1.173,-2.17573 1.30212,-3.0952 0.12908,-0.91957 0.41742,-2.03975 0.36558,-2.87862 -0.10347,-1.6739 -0.42983,-3.52588 -0.9435,-5.79948 -0.76794,-3.49278 -1.86518,-6.49048 -3.1336,-9.22966 6.34867,-6.89916 13.49417,-13.7154 16.52537,-16.47799 0,0 0.013,-0.0134 0.013,-0.0134 0,0 0.0131,-0.012 0.0131,-0.012 2.16954,-2.02249 5.3622,-4.84045 7.53498,-6.6276 0.23995,12.0774 -0.3247,26.82499 0.16843,43.09648 0,0 -7.7e-4,0 -7.7e-4,0 0,0 -7.6e-4,0 -7.6e-4,0 0.57979,18.65469 2.2965,35.57094 3.26712,52.5065 0,0 -0.003,-0.0677 -0.003,-0.0677 0.0898,2.12232 0.29076,4.01196 0.63857,5.69984 0,0 0.007,0.0359 0.007,0.0359 0,0 0.008,0.0359 0.008,0.0359 0.36201,1.61146 0.91378,3.20893 1.63208,4.82725 0,0 0.1145,0.25847 0.1145,0.25847 0,0 0.14923,0.22438 0.14923,0.22438 1.46439,2.20214 3.54772,3.58151 5.80325,3.57523 0,0 0.0293,0 0.0293,0 0,0 0.03,-2e-4 0.03,-2e-4 2.15833,-0.0688 3.59327,-0.49813 5.32593,-2.46832 3.3237,-3.77907 6.45869,-6.79475 14.09103,-13.16449 7.67218,-6.40315 10.40498,-7.91536 13.01645,-9.96269 0.003,0 0.008,-0.009 0.01,-0.009 1.88794,-1.42641 3.43355,-2.49935 8.33546,-5.88188 0,0 7.7e-4,0 7.7e-4,0 2.48273,-1.71508 3.49677,-2.30178 4.851,-3.19668 1.35415,-0.89491 1.93909,-1.26895 2.43678,-1.64135 1.01478,-0.75938 0.92332,-1.37219 1.31532,-2.66833 0.38897,-1.2861 0.46588,-2.54383 0.41987,-3.82634 -0.0634,-2.41921 -1.26041,-4.12034 -2.0162,-6.12155 -0.26285,-0.69601 -0.54932,-3.70501 -2.57656,-8.52342 -2.02385,-4.81035 -3.32218,-7.93509 -3.85066,-9.26192 -0.94692,-2.37732 -2.42225,-4.28528 -4.32862,-5.17269 -1.8756,-0.91895 -3.82215,-0.87068 -5.64636,0.4942 -1.80666,1.35182 -2.92141,3.52397 -3.17184,6.16129 -0.24059,2.53345 0.34199,4.94248 1.36008,7.24965 0.68377,1.54962 1.29658,3.27746 1.83351,5.19072 0.33592,1.19702 0.47568,2.16321 0.67084,3.19628 -0.78955,0.82482 -0.92776,1.15479 -1.85926,2.05286 -1.43271,1.38133 -2.64374,2.44604 -4.7597,4.28227 -0.84411,0.73256 -2.01926,1.71919 -3.50865,2.94242 0,0 -0.003,0 -0.003,0 -1.47,1.20546 -1.86625,1.59747 -2.47151,2.14821 -3.21388,2.92393 -5.38717,4.49235 -8.80535,6.84663 0,0 -0.004,0.009 -0.004,0.009 -2.2296,1.52772 -3.7479,2.16342 -5.69976,3.17534 -1.04921,-14.38938 -2.31942,-29.31983 -2.00838,-46.65567 0.33983,-18.94256 2.80619,-35.48379 4.66402,-47.78842 0,0 -0.007,0.0419 -0.007,0.0419 0.4099,-2.55322 0.63101,-4.53478 0.59005,-6.3045 0.004,-1.65914 -0.2079,-3.25654 -0.80175,-4.67213 -1.18913,-2.83461 -3.18397,-4.91971 -5.60251,-5.64115 -2.4799,-0.78283 -6.01195,0.6197 -8.40533,2.50342 0,0 -0.13769,0.10844 -0.13769,0.10844 0,0 -0.12823,0.12701 -0.12823,0.12701 -2.2657,2.25204 -6.17033,5.85297 -8.47121,8.12542 -2.3196,2.21838 -5.60643,5.2292 -8.2842,7.66547 -2.58704,2.3537 -7.14615,6.43339 -10.61942,9.32074 -3.24009,2.62974 -8.4615,7.07917 -12.44753,10.21493 -2.19342,-0.53529 -5.1707,0.48019 -6.93162,2.48238 0,0 0,0 0,0 m 104.93242,-79.89598 c 6e-5,-7e-5 0.002,0.007 0.002,0.007 0,0 0.003,0.0141 0.003,0.0141 -2.42866,1.07369 -6.21181,4.56477 -6.97053,7.65926 -0.74089,3.02245 -0.57148,6.24873 0.30414,9.3489 0.43813,1.5511 1.0811,3.54102 1.94203,6.03985 0.82065,2.37216 1.39437,4.14941 1.69524,5.21464 1.5005,5.31252 2.5776,8.66971 4.32502,10.93765 0,0 7.7e-4,-5.4e-4 7.7e-4,-5.4e-4 0.005,0.007 0.0238,0.0318 0.0238,0.0318 0,0 7.6e-4,-4.7e-4 7.6e-4,-4.7e-4 0.005,0.007 0.0249,0.0311 0.0249,0.0311 1.8519,2.26618 5.21969,2.36346 7.78519,1.15128 1.05268,-0.49779 2.01965,-1.58171 2.39815,-2.36866 0.37823,-0.78676 0.58405,-1.53445 0.75943,-2.34245 0,0 7.7e-4,-4.8e-4 7.7e-4,-4.8e-4 0.34997,-1.61289 0.53854,-3.49905 0.66541,-5.86723 0,0 7.7e-4,-5e-4 7.7e-4,-5e-4 0.21459,-3.6284 0.53281,-7.14026 0.12655,-10.31447 0,0 0.003,0 0.003,0 7.82234,-3.2141 16.14367,-6.06144 19.72442,-7.1329 0,0 0.0146,-0.007 0.0146,-0.007 0,0 0.003,0 0.003,0 0,0 0.0146,-0.007 0.0146,-0.007 0,0 0.003,0 0.003,0 2.57448,-0.80862 6.12497,-1.80677 8.63453,-2.41705 -3.06242,11.36779 -7.77576,24.68587 -11.6237,40.13758 0,0 -7.6e-4,4e-4 -7.6e-4,4e-4 0,0 -7.6e-4,4.2e-4 -7.6e-4,4.2e-4 0,0 -7.8e-4,4.1e-4 -7.8e-4,4.1e-4 -4.39803,17.72145 -7.42436,34.04749 -11.05003,50.32662 0,0 7.8e-4,-5.2e-4 7.8e-4,-5.2e-4 -0.47515,1.99911 -0.78875,3.83947 -0.91425,5.56275 0,0 -7.7e-4,5e-4 -7.7e-4,5e-4 -7.7e-4,0.009 -0.004,0.0325 -0.004,0.0325 -2.7e-4,0.007 -0.003,0.0367 -0.003,0.0367 -0.0931,1.67734 -0.005,3.43245 0.23202,5.28626 0.004,0.0251 0.0374,0.29485 0.0374,0.29485 0,0 0.0786,0.27827 0.0786,0.27827 0.77856,2.75489 2.35508,5.03749 4.46275,6.10807 0,0 7.8e-4,-5.4e-4 7.8e-4,-5.4e-4 0.006,0.007 0.0264,0.012 0.0264,0.012 0,0 7.7e-4,-4.7e-4 7.7e-4,-4.7e-4 0.006,0.007 0.0266,0.0136 0.0266,0.0136 0,0 7.7e-4,-5e-4 7.7e-4,-5e-4 2.03397,0.96471 3.51254,1.28936 5.65727,0.27598 0,0 0.003,0 0.003,0 4.11522,-1.94431 7.18867,-2.9367 16.0461,-5.05964 5.1e-4,-1.3e-4 0.003,0 0.004,0 8.90345,-2.1339 12.26259,-2.3815 15.25237,-3.02145 5e-4,-1.3e-4 0.003,-5.3e-4 0.004,0 0.004,0 0.008,0 0.009,0 7.6e-4,-2.6e-4 0.003,-6.6e-4 0.004,0 2.14753,-0.41283 4.27527,-0.70463 9.75481,-1.53776 0,0 7.7e-4,-2e-4 7.7e-4,-2e-4 5.1e-4,-8e-5 7.7e-4,-3.3e-4 0.003,-4.8e-4 0,0 7.6e-4,-2.7e-4 7.6e-4,-2.7e-4 2.77563,-0.42367 4.11017,-0.5122 5.61286,-0.71506 5.2e-4,-7e-5 0.002,-4.2e-4 0.003,-4.9e-4 1.50167,-0.20266 1.35667,-0.10216 1.92166,-0.20488 0,0 0.004,-5.5e-4 0.004,-5.5e-4 1.15177,-0.2095 2.26145,-1.06082 2.96471,-2.09492 0,0 0.003,-4e-4 0.003,-4e-4 0.69704,-1.0259 0.36439,-2.03244 0.66815,-3.24928 0,0 7.7e-4,-1.5e-4 7.7e-4,-1.5e-4 0.59477,-2.2854 0.83464,-4.58257 0.63517,-6.80696 0,0 -5.1e-4,-0.007 -5.1e-4,-0.007 -0.07,-0.77884 -0.37029,-3.59646 -0.9561,-9.0596 -2e-5,0 3e-5,1.3e-4 -5e-4,-0.007 -0.58547,-5.45968 -0.95064,-8.99854 -1.08443,-10.49042 0,0 -5.1e-4,-0.007 -5.1e-4,-0.007 -0.24019,-2.67226 -0.76483,-5.24675 -2.32253,-6.95989 0,0 -0.003,4e-4 -0.003,4e-4 -1.5213,-1.72763 -3.45143,-2.60115 -5.51733,-2.17871 0,0 -0.004,6.8e-4 -0.004,6.8e-4 -2.04613,0.41845 -3.74917,1.91554 -4.68497,4.26043 0,0 -0.003,4.7e-4 -0.003,4.7e-4 -0.89822,2.25283 -0.99437,4.78009 -0.6573,7.41875 0,0 7.8e-4,0.007 7.8e-4,0.007 0.22617,1.77197 0.33873,3.6766 0.33114,5.71832 -1.6e-4,0 -7.7e-4,0 -2.3e-4,0.007 -0.005,1.27653 -0.13072,2.24599 -0.2233,3.30316 -7.6e-4,4.8e-4 -0.003,4e-4 -0.004,0 -0.95654,0.39558 -1.31406,0.64771 -2.42401,1.03781 -7.7e-4,3.3e-4 -0.003,3.3e-4 -0.004,0 -1.70842,0.60025 -3.25025,1.03498 -5.72001,1.7185 0,0 -0.004,0 -0.004,0 -0.98549,0.27265 -2.34751,0.6213 -4.06623,1.03767 0,0 -0.003,5.4e-4 -0.003,5.4e-4 0,0 -7.7e-4,2.7e-4 -7.7e-4,2.7e-4 -1.69685,0.40951 -2.2851,0.59817 -2.99923,0.8141 0,0 -0.003,6.1e-4 -0.003,6.1e-4 -3.79234,1.14645 -6.41255,1.61575 -10.24064,2.10398 0,0 -7.6e-4,4e-4 -7.6e-4,4e-4 0,0 -0.004,0 -0.004,0 0,0 -7.7e-4,3.5e-4 -7.7e-4,3.5e-4 -2.49433,0.31076 -4.13345,0.20503 -6.22648,0.16956 3.05324,-13.87015 6.11418,-28.46551 11.16245,-44.44159 0,0 7.7e-4,-2.7e-4 7.7e-4,-2.7e-4 5.51611,-17.45647 12.00703,-31.58017 16.98118,-42.23021 1.04523,-2.18075 2.2685,-4.0183 2.71359,-5.67541 0,0 7.7e-4,-1.8e-4 7.7e-4,-1.8e-4 0.45813,-1.54124 0.69942,-3.13091 0.53556,-4.73794 -0.32868,-3.2186 -2.26844,-6.024 -4.34285,-7.83313 0,0 -7.7e-4,2e-4 -7.7e-4,2e-4 -2.11605,-1.89467 -5.58703,-2.32864 -8.3249,-1.70482 0,0 -0.003,5.5e-4 -0.003,5.5e-4 0,0 -0.15544,0.0353 -0.15544,0.0353 0,0 -7.5e-4,0 -0.003,0 -0.0172,0.007 -0.15153,0.0576 -0.15153,0.0576 -5e-4,1.5e-4 -7.7e-4,1.5e-4 -0.003,4.7e-4 -2.7166,1.02841 -6.97664,2.38158 -9.73787,3.3819 -5.1e-4,2e-4 -0.002,3.5e-4 -0.003,5.4e-4 -2.76404,0.94079 -6.49912,2.09565 -9.65846,3.05084 0,0 -0.003,0 -0.003,0 -3.05267,0.92286 -8.1772,2.41587 -12.20458,3.37137 -4.7e-4,10e-5 -0.003,0 -0.003,-5.3e-4 -3.73961,0.83218 -9.65148,2.39242 -14.22667,3.30188 0,0 -7.6e-4,4.8e-4 -7.6e-4,4.8e-4 -1.88248,-1.59457 -4.86045,-2.08902 -7.05541,-1.11863 0,0 0,0 0,0 m 114.83116,-21.4801 c 6e-5,0 10e-5,0.007 10e-5,0.007 0,0 -7.7e-4,0 -7.7e-4,0 -2.40886,0.0616 -5.29456,1.6511 -6.67526,4.10131 0,0 -7.7e-4,0 -7.7e-4,0 -1.34847,2.39324 -2.44775,5.36702 -2.3418,8.48438 0.053,1.55962 0.64255,3.56742 0.84112,6.14428 0.0118,0.15191 0.0192,0.2642 0.0208,0.33115 0.17962,2.2963 0.2794,4.00125 0.3035,5.0067 0.008,0.33113 0.0203,0.54383 0.0847,0.71332 0.1202,5.01421 0.30343,8.2321 1.28033,10.79434 0,0 0.002,-3.4e-4 0.003,0.007 0.004,0.007 0.0138,0.0353 0.0138,0.0353 0,0 5e-4,0 7.7e-4,0.008 0.004,0.007 0.0147,0.0353 0.0147,0.0353 0.0703,0.17173 0.23382,0.25817 0.39238,0.25174 1.06464,2.60048 3.75776,3.89633 6.16172,3.835 0.0653,0 0.11337,-0.0399 0.14484,-0.075 0.98648,-0.0256 1.71263,-0.6109 2.18618,-1.14273 0.0314,-0.0353 0.0531,-0.0716 0.0734,-0.11299 0.4733,-0.53185 0.79359,-1.09197 1.09984,-1.71263 0.0405,-0.082 0.30032,-0.1853 0.3393,-0.31379 0.62275,-1.22877 1.166,-2.74589 1.75506,-4.69052 0.0607,-0.19631 0.0923,-0.38565 0.10978,-0.57211 0.91953,-2.97211 1.40704,-5.84694 1.66973,-8.67053 0.47708,-0.007 0.8757,-0.007 1.08983,-4.7e-4 7.23092,-0.0535 14.08196,0.28992 17.32106,0.47693 0,0 0.003,7e-5 0.003,7e-5 0,0 0.0139,4e-4 0.0139,4e-4 0,0 7.7e-4,0 0.003,8e-5 0,0 0.0129,3.3e-4 0.0129,3.3e-4 0.15456,0.007 0.30119,0.0175 0.45016,0.0264 2.33579,0.10203 5.15053,0.38785 7.39944,0.59133 -0.29473,0.58388 -0.64214,1.23958 -1.06892,1.99824 -4.46764,8.85085 -10.00849,18.88125 -16.29584,30.56381 0,0 -7.7e-4,0 -7.7e-4,0 0,0 -7.6e-4,-4e-5 -7.6e-4,-4e-5 -0.47467,0.88386 -0.97868,1.70906 -1.43009,2.49385 -7.01628,13.54638 -13.26363,26.38617 -19.76304,38.60307 -0.0556,0.10003 -0.0996,0.19651 -0.1315,0.29005 -0.83671,1.50817 -1.10543,2.92343 -1.56932,4.33997 0,0 -0.002,-8e-5 -0.003,0.007 -0.003,0.007 -0.008,0.0271 -0.008,0.0271 0,0 -7.7e-4,6e-5 -7.7e-4,6e-5 -0.003,0.007 -0.01,0.0298 -0.01,0.0298 -0.0279,0.0908 -0.0465,0.18999 -0.0585,0.2987 -0.42236,1.37491 -0.70911,2.88153 -0.88986,4.5257 0,0 -7.7e-4,0.0163 -0.002,0.0183 -0.003,0.0223 -0.0287,0.26113 -0.0287,0.26113 0,0 5.1e-4,0.0195 5.1e-4,0.0195 0,0 0.009,0.26283 0.009,0.26283 0.006,0.17194 0.0623,0.33716 0.16447,0.44797 0.0888,2.59892 0.42623,5.10161 1.96014,6.7998 0,0 0.003,-7e-5 0.003,-7e-5 0.004,0.007 0.0199,0.0204 0.0199,0.0204 0,0 0.003,-1.2e-4 0.003,-1.2e-4 0.004,0.007 0.0187,0.0216 0.0187,0.0216 0.0989,0.1047 0.23037,0.15636 0.36315,0.15114 1.49487,1.58151 2.93415,2.34754 4.94386,2.29631 0.25461,-0.007 0.64674,0.0107 1.17019,0.0562 3.85612,-0.0983 8.04682,0.1735 15.95378,1.28773 0.52457,0.0739 0.87032,0.11953 1.04703,0.13565 7.948,1.12004 12.2405,1.91715 14.90521,2.23435 4.9e-4,6e-5 0.003,6e-5 0.004,2e-4 0.003,1.4e-4 0.007,4e-4 0.008,4.7e-4 0.12654,0.0175 0.34853,0.0481 0.66916,0.0906 1.90643,0.26792 4.39054,0.73897 9.22901,1.50785 0,0 7.7e-4,8e-5 7.7e-4,8e-5 5e-4,5e-5 0.002,5e-5 0.003,2e-4 0.16186,0.0256 0.28681,0.0447 0.37452,0.0582 2.45119,0.38798 3.54255,0.6371 4.8655,0.8709 0.0877,0.0163 0.12611,0.0231 0.15983,0.0264 1.32206,0.23373 1.88857,0.34374 2.39079,0.39773 0.0683,0.007 0.13991,-0.0223 0.19036,-0.0697 1.02375,0.11018 2.10292,-0.34405 2.85636,-1.05898 0.05,-0.0474 0.084,-0.10671 0.11259,-0.1722 0.74689,-0.70952 1.25228,-1.59585 1.67494,-2.57869 0.0542,-0.12221 0.0879,-0.24991 0.0961,-0.38082 0.81475,-1.84014 1.32401,-3.77266 1.44296,-5.74568 0.003,-0.0461 0.01,-0.21241 0.0236,-0.53461 0.0415,-0.69084 0.15044,-3.2009 0.35952,-8.0691 0.0138,-0.32166 0.0245,-0.53041 0.0297,-0.61889 0.20896,-4.86517 0.35632,-8.01616 0.43611,-9.33943 0.009,-0.15736 -0.0173,-0.31354 -0.0898,-0.43808 0.14236,-2.37035 -0.27585,-4.72742 -1.3777,-6.59936 -0.0709,-0.1246 -0.18985,-0.20654 -0.31168,-0.22055 -1.06843,-1.87525 -2.86531,-3.10137 -4.70598,-3.2993 -0.12104,-0.0134 -0.25106,0.0413 -0.33006,0.15548 -1.82302,-0.19601 -3.48961,0.66737 -4.65067,2.43019 -0.0741,0.11246 -0.105,0.25532 -0.11289,0.41173 -1.11472,1.69393 -1.58225,3.83985 -1.69338,6.20022 -0.005,0.10577 -0.0175,0.21776 -0.0383,0.33459 -0.0747,1.58502 -0.26718,3.25354 -0.58395,5.00712 -0.0132,0.0735 -0.0304,0.12621 -0.0463,0.18553 -0.19829,1.09651 -0.4548,1.89497 -0.69509,2.77905 -0.0591,0.007 -0.1146,0.0134 -0.18229,0.0135 -0.8827,0.0809 -1.72282,0.18433 -2.7369,0.19537 -0.1036,0 -0.23018,-0.007 -0.37751,-0.017 -1.56083,0.017 -2.87592,-0.0399 -5.10235,-0.16923 -0.0594,-0.007 -0.14076,-0.008 -0.24304,-0.021 -0.8884,-0.0514 -2.11198,-0.14783 -3.6517,-0.28882 0,0 -0.003,-1.4e-4 -0.003,-1.4e-4 0,0 -7.6e-4,-6e-5 -7.6e-4,-6e-5 -1.62008,-0.14966 -2.74182,-0.24396 -3.43071,-0.28395 0,0 -7.7e-4,-8e-5 -7.7e-4,-8e-5 -3.65843,-0.21262 -6.62417,-0.65341 -10.18228,-1.55503 0,0 -7.7e-4,0 -7.7e-4,0 -7.7e-4,-6e-5 -0.004,-6e-5 -0.004,-1.4e-4 0,0 -7.7e-4,0 -7.7e-4,0 -2.31731,-0.59409 -3.84624,-1.30031 -5.73105,-2.07291 5.51031,-11.45506 11.36389,-23.59397 18.91331,-36.44039 0,0 7.7e-4,6e-5 7.7e-4,6e-5 8.24025,-14.02197 16.11283,-25.20728 22.39618,-33.52426 1.32327,-1.70882 2.27456,-3.10347 2.93776,-4.5159 0,0 7.7e-4,1.4e-4 7.7e-4,1.4e-4 0.65409,-1.29456 1.11674,-2.69132 1.20855,-4.21379 0.18343,-3.04941 -0.5577,-6.07654 -2.16512,-8.33525 0,0 -7.7e-4,-1.5e-4 -7.7e-4,-1.5e-4 -1.63169,-2.34916 -4.76625,-3.71574 -7.37677,-3.9349 0,0 -0.003,-2e-4 -0.003,-2e-4 0,0 -0.14773,-0.012 -0.14773,-0.012 -7e-5,0 -7.7e-4,-2.8e-4 -0.003,-2.2e-4 -0.0154,0 -0.1477,0.009 -0.14871,0.009 0,0 -7.7e-4,-4e-5 -7.7e-4,-4e-5 -2.65659,0.15778 -6.12139,0.13815 -8.81539,0.19954 -5.2e-4,0 -7.7e-4,-1.4e-4 -0.003,-1.4e-4 -2.68624,0.007 -5.55338,-0.0804 -8.60115,-0.25736 0,0 -7.7e-4,-7e-5 -7.7e-4,-7e-5 -2.94484,-0.17112 -7.20101,-0.48473 -11.03127,-1.03353 0,0 -7.7e-4,0 -7.7e-4,0 -3.5457,-0.55939 -8.77115,-1.30961 -13.0816,-2.15118 0,0 -7.7e-4,0 -7.7e-4,0 -1.3727,-2.12138 -3.60979,-3.72185 -5.78683,-3.66633 0,0 0,0 0,0 m 103.92581,14.08744 c -2.1963,-0.39369 -4.89844,0.50856 -6.41314,2.47405 -1.47938,1.91986 -2.32257,4.48502 -2.58549,7.33365 0,0 -1.2e-4,0 -1.2e-4,0 -0.13153,1.4252 -0.23751,3.2966 -0.33042,5.67603 -0.0132,0.3496 -0.0281,0.60859 -0.0421,0.76033 -0.0724,1.91164 -0.15344,3.32525 -0.22982,4.15289 -0.0696,0.75447 -0.0985,1.24202 0.003,1.65616 -0.3809,4.12761 -0.53761,6.7943 0.0176,9.05953 0,0 7.7e-4,0.007 0.002,0.007 0.002,0.007 0.008,0.0318 0.008,0.0318 0,0 7.7e-4,0.007 0.002,0.007 0.002,0.007 0.009,0.0318 0.009,0.0318 0.11391,0.42267 0.46357,0.69674 0.82505,0.75651 0.62341,2.31152 2.69064,3.84516 4.66612,4.19924 0.14832,0.0264 0.26776,-0.0379 0.34801,-0.10297 0.81066,0.14512 1.46092,-0.21182 1.89908,-0.56799 0.0802,-0.0649 0.13769,-0.13889 0.19447,-0.22263 0.43793,-0.35617 0.75341,-0.76117 1.06288,-1.21806 0.113,-0.16699 0.21919,-0.37913 0.33848,-0.65436 0.61767,-0.91237 1.19458,-2.07346 1.84664,-3.57867 0.18509,-0.42006 0.30365,-0.83738 0.38788,-1.25374 1.01237,-2.29744 1.66183,-4.58161 2.12215,-6.85867 1.08569,0.19459 2.32651,0.42354 2.81095,0.53325 5.92925,1.17611 10.86944,2.17898 13.51962,2.77634 0,0 0.003,4e-4 0.003,4e-4 0,0 0.0117,0 0.0117,0 0,0 7.7e-4,9e-5 0.003,4.1e-4 0,0 0.0117,0 0.0117,0 0.34982,0.0757 0.68081,0.15242 1.01767,0.22974 1.91363,0.40402 3.72685,0.83562 5.56838,1.25923 -0.77626,1.24073 -1.68732,2.6256 -2.79621,4.2242 -4.24825,6.79027 -9.23242,14.37593 -15.30163,23.12504 0,0 -7.8e-4,-2e-4 -7.8e-4,-2e-4 0,0 -7.7e-4,-2e-4 -7.7e-4,-2e-4 -1.26986,1.83437 -2.51337,3.54665 -3.72957,5.13633 -6.94814,10.03684 -13.34861,19.59151 -19.84693,28.49806 0.007,-0.009 0.0246,-0.0318 0.0246,-0.0318 -0.15195,0.2001 -0.27684,0.39496 -0.37338,0.59126 -0.82956,1.09272 -1.50937,2.15354 -2.03557,3.22553 0,0 -0.003,0.007 -0.004,0.007 -0.004,0.007 -0.0106,0.0208 -0.0106,0.0208 0,0 -0.003,0.007 -0.003,0.007 -0.003,0.007 -0.01,0.0236 -0.01,0.0236 -0.0892,0.19122 -0.16131,0.4064 -0.21956,0.64588 -0.48793,1.04567 -0.87781,2.22367 -1.1962,3.53413 0,0 -0.009,0.0366 -0.0101,0.0399 -0.005,0.0175 -0.0504,0.20746 -0.0504,0.20746 0,0 -0.004,0.0406 -0.004,0.0406 0,0 -0.0201,0.21776 -0.0201,0.21776 -0.0362,0.39146 0.045,0.79285 0.24476,1.09536 -0.1972,2.14045 0.24337,4.33677 1.33745,5.98927 0,0 0.003,2.1e-4 0.003,0.007 0.003,0.007 0.0144,0.021 0.0144,0.021 0,0 0.004,4e-4 0.004,0.007 0.003,0.007 0.0143,0.021 0.0143,0.021 0.19626,0.28361 0.47944,0.46088 0.78178,0.51105 1.07327,1.55029 2.20998,2.44514 3.86152,2.74113 0.57915,0.10377 1.46481,0.32993 2.64109,0.6748 3.16886,0.56811 7.51447,1.71775 13.93334,3.71736 1.17907,0.36742 1.95582,0.60068 2.35421,0.70404 6.45216,2.01002 10.705,3.28233 12.88214,3.84685 3.9e-4,6e-5 0.002,2.7e-4 0.004,6.1e-4 0.003,5.4e-4 0.006,0 0.008,0 0.28471,0.08 0.29905,0.12353 1.02106,0.33317 1.55095,0.4626 4.28003,1.26098 8.22722,2.40662 0,0 7.7e-4,2e-4 7.7e-4,2e-4 0,0 7.6e-4,2.7e-4 7.6e-4,2.7e-4 0.36552,0.10591 0.64743,0.18654 0.84534,0.2432 1.99982,0.57903 3.53941,1.02225 4.62153,1.32964 0.19789,0.0562 0.28282,0.0824 0.35854,0.0992 1.08142,0.30711 1.54506,0.44601 1.95763,0.53401 0.15414,0.0331 0.32079,-0.0175 0.44154,-0.11339 0.8408,0.17931 1.75452,-0.10444 2.41184,-0.63034 0.11972,-0.0956 0.20498,-0.22154 0.27813,-0.36376 0.65161,-0.52195 1.11149,-1.21048 1.50838,-1.9864 0.13969,-0.26562 0.23495,-0.55052 0.27076,-0.84727 0.76237,-1.45052 1.27592,-3.00357 1.46966,-4.62406 0.0124,-0.10377 0.051,-0.48236 0.1258,-1.21555 0.0678,-0.56752 0.28006,-2.63286 0.68835,-6.6383 0.0745,-0.73173 0.12453,-1.20501 0.14843,-1.40489 0.40801,-4.00287 0.68311,-6.59436 0.81307,-7.68124 0.0426,-0.35659 -5e-5,-0.71894 -0.14961,-1.01994 0.23223,-1.94682 5.1e-4,-3.93194 -0.81946,-5.57422 -0.14501,-0.30081 -0.40548,-0.51404 -0.682,-0.57386 -0.7924,-1.64194 -2.21744,-2.81047 -3.72919,-3.13287 -0.2742,-0.0582 -0.57896,0.0338 -0.7739,0.27679 -1.49721,-0.3193 -3.16149,0.19162 -4.22406,1.52374 -0.18695,0.23434 -0.28144,0.54991 -0.32426,0.90414 -1.0202,1.28007 -1.53307,3.00125 -1.76456,4.93738 -0.0286,0.23853 -0.0757,0.48818 -0.1426,0.74742 -0.15562,1.30019 -0.41353,2.65613 -0.77882,4.06988 -0.042,0.16234 -0.0887,0.27957 -0.13473,0.40906 -0.22857,0.88381 -0.48716,1.51474 -0.73783,2.21898 -0.13467,-0.007 -0.26299,-0.007 -0.41666,-0.0216 -0.7333,-0.0264 -1.43256,-0.0298 -2.27013,-0.12795 -0.23601,-0.0276 -0.52278,-0.078 -0.85658,-0.14918 -1.28907,-0.1511 -2.85394,-0.41989 -4.67833,-0.80896 -0.13365,-0.0284 -0.31742,-0.0751 -0.54835,-0.12902 -0.72801,-0.15532 -1.39946,-0.29463 -2.66021,-0.58591 0,0 -0.003,-4e-4 -0.003,-4e-4 0,0 -7.7e-4,-2.8e-4 -7.7e-4,-2.8e-4 -1.47175,-0.341 -2.49131,-0.56919 -3.11876,-0.69271 0,0 -7.7e-4,-2.1e-4 -7.7e-4,-2.1e-4 -3.33217,-0.65605 -6.57938,-1.66488 -9.75013,-3.02855 0,0 -7.7e-4,-2.2e-4 -7.7e-4,-2.2e-4 -7.8e-4,-2e-4 -0.004,-5.3e-4 -0.004,-6e-4 0,0 -7.7e-4,-2e-4 -7.7e-4,-2e-4 -2.06441,-0.89439 -3.8375,-1.88435 -5.47906,-2.91342 6.12695,-9.47975 12.99204,-19.53865 20.80777,-30.33962 0,0 7.6e-4,2.1e-4 7.6e-4,2.1e-4 8.53996,-11.80171 16.0952,-21.09322 22.30723,-28.12079 0,0 -7.7e-4,-2.5e-4 -7.7e-4,-2.5e-4 1.29412,-1.42967 2.2357,-2.61282 2.91592,-3.83766 0,0 7.8e-4,2.7e-4 7.8e-4,2.7e-4 0.66925,-1.12451 1.16749,-2.36086 1.33341,-3.74808 0.33191,-2.77872 -0.18517,-5.62567 -1.53791,-7.85074 0,0 -7.7e-4,-2e-4 -7.7e-4,-2e-4 -1.37014,-2.31038 -3.50367,-3.76617 -5.87941,-4.27288 0,0 -0.003,-5e-4 -0.003,-5e-4 0,0 -0.13557,-0.029 -0.13557,-0.029 0,0 -7.7e-4,-2e-4 -7.7e-4,-2e-4 -0.0126,0 -0.13456,-0.009 -0.13687,-0.009 0,0 -7.7e-4,-2e-4 -7.7e-4,-2e-4 -2.44271,-0.16686 -4.89725,-0.41181 -7.36367,-0.73503 -5.2e-4,-7e-5 -0.002,-4e-4 -0.003,-4.7e-4 -2.45497,-0.37264 -5.51704,-0.88125 -8.29297,-1.42764 0,0 -0.003,-4.7e-4 -0.003,-4.7e-4 -2.68219,-0.52804 -5.75503,-1.33158 -9.20421,-2.4146 0,0 -7.7e-4,-2.2e-4 -7.7e-4,-2.2e-4 -3.18853,-1.04944 -7.26844,-2.52047 -11.11332,-4.02616 0,0 -7.6e-4,-2e-4 -7.6e-4,-2e-4 -1.04621,-2.16755 -2.41304,-3.93382 -4.39797,-4.28974 6e-5,0 -0.002,0.007 -0.002,0.007 0,0 0.002,-0.0142 0.002,-0.0142 0,0 0,0 0,0 m 91.6554,24.62863 c -1.97461,-0.43673 -4.03838,0.34663 -5.4604,2.04469 0,0 -7.6e-4,0 -7.6e-4,0 -1.38888,1.65858 -2.22056,3.93131 -2.53769,6.48882 -0.15867,1.27958 -0.30757,2.9635 -0.45814,5.10614 -0.0392,0.56675 -0.0755,0.98603 -0.10587,1.23093 -0.10155,1.46961 -0.19834,2.55521 -0.27702,3.1897 -0.15122,1.21945 -0.22197,2.0089 -0.0782,2.69093 -0.39222,3.1636 -0.57793,5.21045 -0.20439,6.97939 0,0 0.003,0.009 0.004,0.0107 7.7e-4,0.007 0.005,0.0251 0.005,0.0251 0,0 0.004,0.0107 0.004,0.0107 7.7e-4,0.007 0.005,0.0244 0.005,0.0244 0.16373,0.69692 0.71856,1.1731 1.30299,1.30261 0.42493,1.80742 1.86276,3.04256 3.37894,3.37788 0.24002,0.0529 0.43642,-0.0446 0.56917,-0.14478 0.62221,0.13743 1.12934,-0.11699 1.47332,-0.3777 0.13277,-0.10057 0.22978,-0.21803 0.32502,-0.35015 0.34382,-0.26068 0.59391,-0.56115 0.84052,-0.90359 0.18984,-0.26363 0.3697,-0.60223 0.57384,-1.04167 0.4922,-0.68361 0.95787,-1.5589 1.48708,-2.6983 0.31654,-0.6704 0.52452,-1.34199 0.67691,-2.01307 0.82094,-1.73868 1.36219,-3.47917 1.75731,-5.21947 1.7577,0.38875 3.22117,0.72454 4.00648,0.92099 4.55895,1.01514 8.21676,1.7843 10.25609,2.27605 0,0 0.004,0 0.004,0 0,0 0.009,0 0.009,0 0,0 0.002,2.7e-4 0.004,0 0.003,6.3e-4 0.008,0 0.008,0 0.56791,0.12888 1.10583,0.26466 1.65222,0.3993 1.47279,0.33425 2.86807,0.68819 4.28512,1.03653 -1.27975,1.99859 -2.78063,4.22923 -4.60644,6.80148 -3.32037,5.18526 -7.21359,10.97494 -11.95086,17.64889 0,0 -7.8e-4,-2e-4 -7.8e-4,-2e-4 0,0 -7.7e-4,-2.6e-4 -7.7e-4,-2.6e-4 -2.091,2.95199 -4.14809,5.69301 -6.1604,8.23142 -5.45169,7.59962 -10.78254,14.68817 -15.99478,21.26426 -0.25672,0.3111 -0.46901,0.61481 -0.63546,0.92476 -0.66527,0.80644 -1.21448,1.59448 -1.64554,2.3979 0,0 -0.004,0.007 -0.005,0.008 -0.003,0.007 -0.008,0.0156 -0.008,0.0156 0,0 -0.004,0.007 -0.004,0.008 -0.003,0.007 -0.008,0.0168 -0.008,0.0168 -0.15459,0.30251 -0.28077,0.64535 -0.38749,1.02928 -0.40095,0.78479 -0.7298,1.67586 -1.0065,2.67184 0,0 -0.0165,0.0596 -0.0176,0.063 -0.004,0.0135 -0.0434,0.15784 -0.0434,0.15784 0,0 -0.008,0.065 -0.008,0.065 0,0 -0.0207,0.16693 -0.0207,0.16693 -0.0784,0.63269 0.0314,1.29226 0.34091,1.80141 -0.20311,1.64064 0.0842,3.35089 0.88752,4.67077 0,0 0.004,0.007 0.005,0.007 0.003,6e-4 0.01,0.017 0.01,0.017 0,0 0.004,0.007 0.005,0.008 0.003,5.5e-4 0.01,0.0155 0.01,0.0155 0.30443,0.47831 0.75542,0.79259 1.24407,0.90095 0.7898,1.24008 1.9616,2.0514 3.22922,2.33178 0.93745,0.20733 2.3693,0.63161 4.26859,1.27099 2.43226,0.53798 6.36581,1.70029 11.3016,3.31779 1.91226,0.62667 3.17407,1.02359 3.82018,1.20143 4.96136,1.62588 8.2316,2.65774 9.90653,3.11871 3e-4,6e-5 0.003,3.3e-4 0.004,6.9e-4 0.003,5.2e-4 0.005,0 0.005,0 0.46134,0.13712 1.27274,0.37423 2.4467,0.71409 1.19604,0.35584 3.7535,1.06077 6.80522,1.8917 0,0 7.6e-4,2e-4 7.6e-4,2e-4 3.8e-4,1.2e-4 0.002,3.2e-4 0.003,4.1e-4 0.59602,0.16182 1.05447,0.28653 1.37712,0.37251 1.54616,0.42007 2.73702,0.74122 3.57365,0.96382 0.32229,0.0853 0.46008,0.12487 0.58317,0.14886 0.83615,0.22253 1.19435,0.32464 1.5132,0.3871 0.25071,0.0484 0.52241,-0.0401 0.71676,-0.19921 0.64966,0.12715 1.35216,-0.10163 1.85512,-0.51611 0.19272,-0.15873 0.32797,-0.36707 0.44417,-0.59985 0.49859,-0.41122 0.84894,-0.9486 1.14924,-1.55213 0.22273,-0.43538 0.37052,-0.89981 0.42384,-1.38281 0.57702,-1.12852 0.96172,-2.333 1.09909,-3.58496 0.0185,-0.16849 0.0755,-0.78338 0.1855,-1.97734 0.0481,-0.43864 0.19621,-2.03386 0.48129,-5.12756 0.1097,-1.19145 0.18403,-1.96359 0.21967,-2.28856 0.28489,-3.09171 0.47742,-5.09221 0.56957,-5.93201 0.0636,-0.5803 -0.0105,-1.16949 -0.25867,-1.65399 0.16454,-1.5042 -0.0277,-3.03161 -0.67226,-4.28704 -0.24022,-0.48452 -0.66793,-0.82478 -1.11827,-0.91366 -0.62322,-1.25551 -1.73037,-2.13709 -2.89839,-2.36568 -0.44628,-0.0873 -0.94036,0.0716 -1.253,0.47234 -1.15674,-0.22644 -2.43596,0.19027 -3.24537,1.23148 -0.29998,0.38582 -0.44738,0.89979 -0.5111,1.47664 -0.77705,1.00057 -1.16046,2.33615 -1.32459,3.83201 -0.0425,0.38792 -0.11451,0.79319 -0.21903,1.21584 -0.11036,1.00457 -0.29979,2.05361 -0.57095,3.14851 -0.0655,0.26458 -0.1402,0.45405 -0.21284,0.66517 -0.1697,0.68454 -0.36407,1.1761 -0.55216,1.72248 -0.21845,-0.007 -0.42721,0 -0.67676,-0.027 -0.56568,-0.0107 -1.10533,-0.007 -1.75192,-0.0689 -0.38384,-0.0379 -1.15438,-0.18194 -1.6969,-0.29729 -0.9941,-0.11579 -2.20108,-0.32178 -3.60801,-0.62084 -0.21682,-0.0461 -0.51514,-0.1166 -0.88977,-0.20789 -0.56148,-0.1194 -1.3334,-0.29924 -2.30356,-0.53901 0,0 -7.7e-4,-2.6e-4 -7.7e-4,-2.6e-4 -1.32658,-0.3285 -2.24589,-0.54821 -2.81164,-0.66844 -3.00441,-0.63857 -5.92963,-1.59388 -8.78279,-2.8692 0,0 -7.7e-4,-2.7e-4 -7.7e-4,-2.7e-4 -7.6e-4,-2e-4 -0.003,0 -0.004,0 0,0 -7.8e-4,-2.8e-4 -7.8e-4,-2.8e-4 -1.85751,-0.83622 -3.59968,-1.78578 -5.06972,-2.75035 5.64699,-8.42941 12.02884,-17.42241 19.1713,-27.06928 7.79583,-10.52913 14.31737,-19.06251 19.86287,-25.50323 1.16615,-1.32097 2.01144,-2.40798 2.61845,-3.53074 0.59468,-1.02589 1.03474,-2.14946 1.17256,-3.40491 0.27564,-2.51465 -0.21573,-5.07878 -1.45669,-7.06743 0,0 -7.7e-4,-2e-4 -7.7e-4,-2e-4 -1.25745,-2.0654 -3.19757,-3.34614 -5.34755,-3.76703 0,0 -0.003,-4.2e-4 -0.003,-4.2e-4 0,0 -0.12205,-0.0236 -0.12205,-0.0236 -2.5e-4,0 -7.6e-4,-2.8e-4 -0.003,-4.1e-4 -0.01,0 -0.11902,-0.007 -0.12286,-0.007 0,0 -0.003,-4e-4 -0.003,-4e-4 -2.2075,-0.11285 -4.00724,-0.24619 -6.23504,-0.53651 -5.1e-4,-6e-5 -0.002,-4e-4 -0.003,-4.6e-4 -2.21746,-0.33493 -4.57706,-0.76801 -7.07988,-1.29983 0,0 -0.003,-4.2e-4 -0.003,-4.2e-4 -2.41833,-0.51403 -5.18674,-1.28292 -8.29347,-2.30875 0,0 -7.6e-4,-2.8e-4 -7.6e-4,-2.8e-4 -2.87158,-0.9919 -5.87945,-2.25552 -9.31925,-3.75723 0,0 -7.6e-4,-2.6e-4 -7.6e-4,-2.6e-4 -0.89948,-1.99554 -2.09651,-3.64216 -3.88105,-4.03698 5e-5,0 -0.003,0.007 -0.003,0.007 0,0 0.002,-0.009 0.002,-0.009 0,0 0,0 0,0 m 82.49698,21.85573 c -1.76143,-0.25776 -3.55733,0.56799 -4.75249,2.16139 -1.16727,1.55632 -1.46716,3.65178 -1.67555,5.92985 -0.10421,1.13983 -0.18771,2.63637 -0.26069,4.53919 0,0 -10e-5,0 -10e-5,0 -0.0297,0.80245 -0.0629,1.39615 -0.0947,1.74395 -0.0372,1.00572 -0.08,1.74907 -0.11987,2.18467 -0.15849,1.73264 -0.2229,2.85248 0.0109,3.80305 -0.19854,2.17154 -0.28044,3.57344 0.0126,4.76477 0,0 0.004,0.012 0.004,0.0156 -5.1e-4,0.007 0.004,0.017 0.004,0.017 0,0 0.004,0.0135 0.004,0.0142 0,0 0.005,0.017 0.005,0.017 0.26232,0.97011 0.90839,1.55691 1.73997,1.67875 0.34021,1.2098 1.35438,1.97903 2.39656,2.13153 0.34141,0.0501 0.61194,-0.10884 0.79319,-0.26433 0.42763,0.0622 0.76696,-0.13605 0.99398,-0.33081 0.18126,-0.15553 0.31051,-0.33031 0.43703,-0.52647 0.22692,-0.19474 0.3888,-0.41249 0.54712,-0.65807 0.25231,-0.39124 0.48561,-0.88578 0.74781,-1.52647 0.31609,-0.49027 0.60865,-1.11105 0.93716,-1.91364 0.40734,-0.97796 0.66261,-1.94505 0.83842,-2.90699 0.51035,-1.22544 0.82958,-2.4381 1.04989,-3.64342 2.50043,0.37268 4.29356,0.59815 5.41414,0.77279 3.13834,0.40633 5.75426,0.75291 7.15855,0.97114 0,0 0.005,0 0.005,0 0,0 0.005,6.8e-4 0.005,6.8e-4 0,0 0.007,0 0.007,0 0,7e-5 0.007,0 0.007,0 0.80875,0.11459 1.24847,0.18573 2.02865,0.29438 1.01513,0.12193 1.97791,0.26291 2.95579,0.39856 -1.63601,3.00296 -3.31778,6.42662 -5.72046,10.26798 -2.09474,3.72034 -4.56015,7.88391 -7.57186,12.69879 0,0 -7.7e-4,-1.4e-4 -7.7e-4,-1.4e-4 0,0 -8e-5,0 -8e-5,0 -2.75136,4.40807 -5.51285,8.51544 -8.20287,12.30341 -3.50295,5.45407 -7.14139,10.56867 -10.55376,15.25607 5e-4,-0.007 0.0145,-0.0175 0.0145,-0.0175 -0.34797,0.45926 -0.63376,0.90454 -0.85444,1.35493 -0.43602,0.57563 -0.79323,1.13507 -1.06965,1.69948 0,0 -0.006,0.007 -0.006,0.009 -5e-4,0.007 -0.006,0.0107 -0.006,0.0107 0,0 -0.006,0.007 -0.006,0.009 0,0 -0.007,0.012 -0.007,0.012 -0.20444,0.43903 -0.36886,0.93431 -0.50211,1.48434 -0.25624,0.55059 -0.46038,1.1711 -0.62731,1.86083 0,0 -0.021,0.0828 -0.0221,0.0884 -7.7e-4,0.009 -0.0262,0.10897 -0.0262,0.10897 0,0 -0.008,0.0918 -0.008,0.0918 0,0 -0.0104,0.11405 -0.0104,0.11405 -0.0822,0.89865 0.1036,1.82139 0.56313,2.5146 -0.10273,1.12621 0.12986,2.28072 0.70611,3.14924 0,0 0.005,0.007 0.007,0.009 0,0 0.007,0.0107 0.007,0.0107 0,0 0.005,0.007 0.007,0.009 0,0 0.007,0.0107 0.007,0.0107 0.45096,0.6503 1.47523,1.10678 2.17047,1.20886 0.5729,0.80516 1.39403,1.29981 2.26548,1.42729 1.33376,0.1952 3.37642,0.64547 6.09166,1.35008 1.67206,0.24482 4.6771,0.82834 8.08967,1.64763 2.73662,0.65696 4.54041,1.06852 5.46259,1.24262 3.4302,0.8235 6.2088,1.28642 7.36649,1.48027 2.2e-4,0 -1.4e-4,-2e-4 0.005,5.1e-4 0,10e-5 0.007,0 0.007,0 0.66046,0.12513 1.8212,0.33881 3.50175,0.64351 0.82777,0.15656 2.85911,0.46034 4.96926,0.79298 0.85301,0.13364 1.50925,0.23608 1.97083,0.30614 1.06916,0.16786 1.8917,0.29546 2.47009,0.38319 0.46082,0.0698 0.65995,0.1035 0.83497,0.11806 0.57813,0.0874 0.82567,0.12915 1.04523,0.14742 0.35686,0.0298 0.7306,-0.13756 0.98974,-0.39234 0.44723,0.037 0.91509,-0.17351 1.23947,-0.49352 0.25686,-0.25333 1.04452,-0.52959 1.18217,-0.87888 0.31689,-0.32584 0.5263,-0.72383 0.69852,-1.16167 0.26548,-0.65429 0.42361,-1.33459 0.4459,-2.02288 0.33244,-0.82 0.53026,-1.6739 0.55783,-2.53665 0.008,-0.23968 0.0214,-1.11497 0.0461,-2.81314 0.01,-0.30238 0.0268,-1.39826 0.058,-3.52453 0.0248,-1.69446 0.0456,-2.79279 0.0602,-3.25564 0.0314,-2.12497 0.0573,-3.50042 0.0757,-4.07924 0.0264,-0.82701 -0.14136,-1.64045 -0.54247,-2.27253 0.0329,-1.03624 -0.17861,-2.05361 -0.68189,-2.84546 -0.38981,-0.6339 -1.2715,-1.06535 -1.91289,-1.11909 -0.47739,-0.80611 -1.26809,-1.32224 -2.07203,-1.38878 -0.63542,-0.0527 -1.31564,0.24976 -1.71979,0.86317 -0.79607,-0.0656 -1.64857,0.31449 -2.15449,1.08403 -0.38787,0.5899 -0.54961,1.33795 -0.58807,2.15943 -0.48555,0.73944 -0.68931,1.67641 -0.73704,2.70602 -0.0254,0.55207 -0.0925,1.13278 -0.20234,1.74361 -0.0325,0.69144 -0.11535,1.41937 -0.25284,2.18452 -0.0688,0.38212 -0.15809,0.66005 -0.24156,0.96811 -0.0862,0.47848 -0.19675,0.8277 -0.30131,1.2136 -0.30745,0.029 -0.60025,0.0649 -0.95325,0.0694 -0.3852,0.0358 -0.75225,0.0813 -1.19477,0.0865 -0.54316,0.007 -1.5912,-0.0789 -2.36423,-0.16083 -0.68094,-0.007 -1.50996,-0.0622 -2.47902,-0.16496 -0.30867,-0.0326 -0.73419,-0.0868 -1.26876,-0.16111 -0.38675,-0.0413 -0.91842,-0.10831 -1.588,-0.2017 0,0 0,-1.4e-4 0,-1.4e-4 -1.18801,-0.16679 -2.00995,-0.27562 -2.5155,-0.3293 -2.68488,-0.2849 -5.65782,-0.96743 -8.23183,-1.88273 -5e-4,-5e-5 -0.005,-5.3e-4 -0.005,0 0,0 -7.7e-4,-1.2e-4 -7.7e-4,-1.2e-4 -1.67595,-0.60116 -3.12242,-1.29477 -4.46488,-2.02662 4.60166,-7.90571 9.88874,-16.2597 15.69097,-25.43609 6.33329,-10.01611 11.57287,-18.17485 16.10862,-24.4046 0.95563,-1.28057 1.64011,-2.32326 2.11343,-3.37372 0.46787,-0.96377 0.79447,-1.99975 0.84657,-3.12089 0.104,-2.24566 -0.47187,-4.45815 -1.6767,-6.09 -1.2237,-1.69792 -3.00673,-2.63676 -4.92672,-2.79577 0,0 -0.10917,-0.009 -0.10917,-0.009 -0.007,-5.4e-4 -0.10356,0.007 -0.10892,0.007 -1.95369,0.1186 -3.39461,0.18304 -5.37592,0.13342 -1.97448,-0.0899 -4.07947,-0.25396 -6.31601,-0.49127 -2.16108,-0.22941 -4.17032,-0.66357 -6.95797,-1.33946 -2.57843,-0.66349 -5.05194,-1.50236 -8.1473,-2.60623 -0.86781,-1.70556 -1.98517,-3.0831 -3.57696,-3.3163 0,0 -7.7e-4,-1.5e-4 -7.7e-4,-1.5e-4 0,0 -5e-4,0.007 -5e-4,0.007 0,0 -0.007,-0.009 -0.007,-0.009 0,0 0,0 0,0 m 74.90608,11.3957 c -1.53024,0.0386 -2.65577,1.00675 -3.56203,2.5332 -0.88513,1.49099 -1.2907,3.34785 -1.28071,5.33027 0.005,0.99171 0.0563,2.28701 0.15174,3.9278 0.062,1.04668 0.0928,1.82334 0.0952,2.28105 0.0299,0.51215 0.0451,0.89275 0.0462,1.11674 0.0116,2.28114 0.0664,3.74588 0.48819,4.9257 0.005,1.11599 0.034,1.83335 0.24069,2.4106 0,0 0.005,0.0136 0.005,0.017 0,0 0.005,0.009 0.005,0.009 0,0 0.008,0.0154 0.008,0.0154 0,0 0.005,0.008 0.005,0.008 0.46151,1.19878 1.4509,1.8285 2.54418,1.80089 0.23112,0.58245 0.78226,0.88463 1.31696,0.87108 0.4487,-0.0107 0.77915,-0.2778 0.99461,-0.51966 0.21941,-0.007 0.38124,-0.13604 0.48666,-0.25437 0.21546,-0.24191 0.36137,-0.49583 0.5007,-0.77822 0.10532,-0.11833 0.17648,-0.24247 0.24459,-0.38041 0.27811,-0.56345 0.36259,-1.24975 0.61393,-2.14291 0.13335,-0.2778 0.24805,-0.6199 0.37096,-1.05663 0.39289,-1.36516 0.58974,-2.67888 0.68523,-3.96658 0.19209,-0.66764 0.2894,-1.31034 0.33608,-1.94013 3.28691,-0.13208 5.78771,-0.25789 7.26177,-0.304 1.60665,-0.096 2.70039,-0.16311 3.421,-0.19894 0,0 0.008,-4.6e-4 0.008,-4.6e-4 0,0 0.008,-4e-4 0.008,-4e-4 0,0 0.007,6e-4 0.007,0 0,0 0.008,-4.1e-4 0.008,-4.1e-4 1.06167,-0.0677 2.07072,-0.10738 3.09523,-0.1538 0.51938,-0.0331 0.76237,-0.0284 1.2633,-0.0609 -1.6699,4.311 -3.35117,9.10637 -5.93727,14.66245 -0.86013,2.078 -1.88349,4.41536 -3.14855,7.13323 0,0 0,8e-5 0,8e-5 0,0 7e-5,0 7e-5,0 -2.96002,6.37422 -6.07121,12.30699 -9.08483,17.8171 -1.50773,3.06733 -3.18463,5.95835 -4.68338,8.62936 0,0 0.0101,-0.0163 0.0127,-0.0208 -0.39037,0.66876 -0.70268,1.30788 -0.93096,1.93726 -0.19249,0.32937 -0.34626,0.64223 -0.45858,0.95204 0,0 -0.005,0.0107 -0.005,0.0136 0,0 6e-5,0.007 6e-5,0.007 0,0 -0.005,0.0107 -0.005,0.0136 0,0 5e-5,0.007 5e-5,0.007 -0.20998,0.61483 -0.36009,1.29362 -0.46385,2.03623 -0.10278,0.30108 -0.17593,0.63249 -0.22671,0.99618 0,0 -0.0162,0.11058 -0.0167,0.1178 0,0.007 -0.008,0.0582 -0.008,0.0582 0,0 0,0.12166 0,0.12166 0,0 3.1e-4,0.0582 3.1e-4,0.0582 0.006,1.18313 0.36207,2.33616 1.04451,3.13192 0.005,0.5788 0.17775,1.14369 0.51186,1.53295 0,0 0.007,0.009 0.008,0.0107 0,0 0.005,0.007 0.005,0.007 0,0 0.008,0.008 0.01,0.0107 0,0 0.005,0.007 0.005,0.007 0.66589,0.74209 1.88168,1.11864 2.79559,1.09584 0.32919,0.3574 0.76933,0.53584 1.21656,0.52453 1.75323,-0.0442 4.79828,0.0596 8.4088,0.30636 0.85776,-0.0359 2.53842,-0.0289 4.306,0.0606 3.63131,0.18492 6.39732,0.19878 7.61421,0.17793 1.77736,0.0586 3.33971,0.0215 3.93485,1.1e-4 7e-5,0 -8e-5,0 0.007,0 0,9e-5 -1.6e-4,0 0.008,-5.2e-4 0.87144,-0.012 2.81294,-0.0626 5.02836,-0.15513 0.42636,-0.0144 1.17619,-0.0431 2.25955,-0.0884 1.12183,-0.0473 2.41119,-0.12968 3.01747,-0.17042 0.54869,-0.0339 0.97045,-0.0608 1.26721,-0.0811 0.60514,-0.0411 0.86652,-0.0545 1.09429,-0.0852 0.29668,-0.0206 0.42391,-0.0267 0.53582,-0.0421 0.46461,-0.0628 0.92006,-0.38351 1.21345,-0.78585 0.22745,-0.0318 0.44905,-0.18905 0.5926,-0.38638 0.29061,-0.39936 0.46252,-0.85158 0.59114,-1.33758 0.14215,-0.19583 0.63691,-0.48244 0.69714,-0.72178 0.24072,-0.91768 0.33797,-1.83952 0.25963,-2.73363 0.11768,-0.4492 0.16592,-0.90155 0.12743,-1.33918 -0.0275,-0.31116 -0.14535,-1.4434 -0.37744,-3.64127 -0.0139,-0.15364 -0.0716,-0.70695 -0.18477,-1.78138 -0.23154,-2.19314 -0.37622,-3.61529 -0.42915,-4.2163 -0.11322,-1.07375 -0.18384,-1.77122 -0.20968,-2.065 -0.0945,-1.07423 -0.43732,-2.07507 -1.05336,-2.77918 -0.0469,-0.52561 -0.39822,-0.99062 -0.69592,-1.34119 -0.59321,-0.72177 -1.4719,-1.07335 -2.30741,-0.96024 -0.29061,-0.35273 -0.72106,-0.52373 -1.13005,-0.46808 -0.82743,0.11272 -1.81365,0.72184 -2.24687,1.61913 -0.40545,0.0474 -0.81399,0.32584 -1.02583,0.7653 -0.41576,0.86251 -0.51753,1.86958 -0.44806,2.94103 -0.20307,0.42245 -0.25269,0.91542 -0.21854,1.43995 0.0469,0.71981 0.0454,1.48849 -0.007,2.30604 0.0231,0.35226 0.0223,0.72841 -0.008,1.12846 -0.0331,0.51145 -0.10861,0.89303 -0.17184,1.31249 -0.0161,0.25025 -0.0515,0.43849 -0.0829,0.64391 -0.393,0.11632 -0.76638,0.23895 -1.22174,0.33567 -0.19262,0.0569 -0.37447,0.11619 -0.59768,0.16355 -0.701,0.14864 -1.83935,0.30359 -2.85002,0.40139 -0.34407,0.0656 -0.76492,0.123 -1.25974,0.17086 -0.4033,0.0393 -0.95991,0.0815 -1.6612,0.1262 -0.19753,0.019 -0.47076,0.0399 -0.81398,0.063 -1.03074,0.0644 -2.01411,0.11192 -2.4514,0.14599 -2.3225,0.18095 -4.88367,0.11165 -7.16778,-0.25755 0,0 -8e-5,0 -8e-5,0 -1.48758,-0.24482 -3.02524,-0.59491 -4.23526,-1.02638 3.29698,-7.44432 7.21074,-15.52641 11.36112,-24.2955 4.53036,-9.57195 7.96543,-17.45341 11.17529,-23.61429 0.67921,-1.26993 1.15366,-2.28709 1.44635,-3.27068 0.2973,-0.9092 0.46553,-1.85219 0.39192,-2.8175 -0.14754,-1.93328 -0.87076,-3.71235 -2.06934,-4.87694 -1.22144,-1.21746 -2.45019,-1.75681 -4.10554,-1.56492 0,0 -0.094,0.0107 -0.094,0.0107 -0.008,0 -0.0863,0.0216 -0.0932,0.0244 -1.65756,0.4349 -2.95924,0.76414 -4.65574,1.06693 -1.69466,0.26715 -3.14724,0.45545 -5.08189,0.60622 -1.86926,0.14565 -3.68153,0.14106 -6.12679,0.0107 -2.26503,-0.15306 -4.48328,-0.51234 -7.23057,-0.95557 -0.89685,-1.31818 -1.61208,-2.3482 -2.99496,-2.31355 0,0 0,0 0,0 0,0 -0.0299,0 -0.0299,0 0,0 0,0 0,0 m 124.68878,-29.39082 c 0,0 -0.01,0.007 -0.01,0.007 -1.161,0.71697 -2.0412,2.12173 -2.3358,3.70159 -0.2876,1.54318 -0.1154,3.1443 0.4054,4.64809 0.2605,0.75236 0.6348,1.71288 1.1319,2.91756 0,0 4e-4,0 4e-4,0 0.4737,1.14388 0.8079,2.00237 0.9867,2.51917 0.8925,2.57735 1.5207,4.19945 2.4535,5.24606 0,0 0.015,0.0155 0.015,0.0155 0,0 0.014,0.0149 0.014,0.0149 0.985,1.04099 2.4992,0.988 3.7344,0.22515 0.507,-0.31308 0.7833,-0.83699 0.938,-1.25659 0.1547,-0.41967 0.051,-0.69794 0.097,-1.11417 0.093,-0.83061 0.091,-1.78165 0.035,-2.96668 -0.075,-1.81726 -0.3535,-3.44316 -0.7371,-4.9699 3.6801,-2.39105 6.4323,-4.27598 8.0814,-5.3507 0,0 0.01,-0.007 0.01,-0.007 0,0 0.01,-0.007 0.01,-0.007 1.1827,-0.79175 2.0146,-1.3724 3.1512,-2.14703 -0.2424,6.0322 -0.5327,12.76909 -1.2981,20.84709 -0.8703,9.26272 -2.2861,18.10517 -3.6532,26.39916 0,0 0.01,-0.0333 0.01,-0.0333 -0.1865,1.03321 -0.5899,2.15822 -0.6196,3.03263 0,0 0,0.0183 0,0.0183 0,0 1e-4,0.019 1e-4,0.019 -0.014,0.84103 0.064,1.71381 0.2182,2.63155 0,0 0.025,0.14721 0.025,0.14721 0,0 0.044,0.13688 0.044,0.13688 0.442,1.34911 1.6653,2.20998 2.7458,2.64211 0,0 0.014,0.007 0.014,0.007 0,0 0.014,0.007 0.014,0.007 1.0407,0.38311 2.2008,0.19784 3.2335,-0.43991 1.9809,-1.22349 5.9563,-3.45421 10.1148,-5.75136 4.18,-2.30916 7.3248,-4.25095 8.6879,-5.1318 0,7e-5 0.01,-0.007 0.01,-0.007 0.9836,-0.60995 3.1301,-2.06181 5.6001,-3.70282 1.2511,-0.83203 2.643,-1.83884 3.3107,-2.3111 0.6674,-0.47247 0.9559,-0.67013 1.2008,-0.86549 0.4993,-0.39821 0.8852,-1.08039 1.0569,-1.74067 0.1705,-0.6551 0.1857,-1.2857 0.1389,-1.92462 -0.076,-1.20616 -0.317,-2.32086 -0.7472,-3.283 -0.1496,-0.33473 -0.7158,-1.54053 -1.8173,-3.87982 -1.0999,-2.33521 -1.8065,-3.85245 -2.0951,-4.49767 -0.5168,-1.15594 -1.2886,-2.06053 -2.2569,-2.44062 -0.9537,-0.397 -2.0839,-0.17497 -2.9814,0.5409 -0.8891,0.70906 -1.7587,2.08125 -1.8989,3.3972 -0.1348,1.26417 0.1431,2.47418 0.6389,3.63803 0.333,0.78175 0.6292,1.65271 0.8867,2.61464 0.161,0.60195 0.2252,1.0858 0.3168,1.6043 -0.3994,0.40437 -0.7728,0.80137 -1.2507,1.227 -0.7351,0.65463 -1.9457,1.64269 -3.0551,2.44473 -0.4426,0.31996 -1.0579,0.74892 -1.8366,1.27954 -0.7689,0.52195 -1.2996,0.88829 -1.6215,1.12099 -1.71,1.2361 -3.7906,2.42247 -5.6221,3.20557 -1.1942,0.50679 -2.5639,1.0165 -3.5973,1.24128 0.6035,-7.18367 1.586,-15.18785 2.401,-23.78974 0.8896,-9.38877 1.4317,-16.93044 2.2316,-23.11149 0,0 0.01,-0.0208 0.01,-0.0208 0.1764,-1.27298 0.2658,-2.26211 0.2272,-3.14078 -0.016,-0.82932 -0.1379,-1.6244 -0.4494,-2.32088 -0.6237,-1.39485 -1.6426,-2.40052 -2.8589,-2.71656 -1.2477,-0.34529 -2.1995,-0.25945 -3.4067,0.6578 0,0 -0.07,0.0529 -0.07,0.0529 0,0 -0.066,0.0616 -0.066,0.0616 -1.1457,1.10274 -1.903,1.90674 -3.1179,2.91633 -1.2226,0.98163 -2.5461,1.98635 -3.9709,3.01623 -1.3764,0.99497 -2.6228,1.70449 -4.5144,2.74428 -1.7609,0.9385 -3.3924,1.56591 -5.6007,2.48534 -1.0219,-0.59465 -1.6485,-1.1552 -2.6981,-0.507 0,0 0,0 0,0 m -57.5851,25.828 c 0,0 -0.01,0.007 -0.01,0.007 -1.249,0.3686 -1.9278,1.3533 -2.48787,2.79934 -0.54712,1.41248 -0.65709,3.02213 -0.4109,4.646 0.123,0.81246 0.32109,1.86382 0.59615,3.18932 0.26262,1.25868 0.43912,2.19751 0.52382,2.75575 0.4217,2.78244 0.7521,4.55407 1.4782,5.86042 0,0 0.01,0.0141 0.011,0.019 0,0 0.011,0.0183 0.011,0.0183 0.7779,1.31703 2.1155,1.77462 3.4442,1.38241 0.5454,-0.16095 0.8993,-0.59376 1.1178,-0.95949 0.2183,-0.36572 0.3499,-0.72421 0.4681,-1.1143 0.2357,-0.77856 0.4015,-1.70347 0.555,-2.87307 0.2454,-1.79031 0.2602,-3.45932 0.1552,-5.06349 3.9971,-1.17279 6.7568,-2.1645 8.5422,-2.73053 0,0 0.01,0 0.01,0 0,0 0.01,0 0.01,0 1.2835,-0.4263 2.2345,-0.70423 3.471,-1.12363 -1.236,5.81066 -2.5291,12.2592 -4.7068,19.86381 -2.4898,8.7224 -5.35,17.02812 -8.1162,24.67459 0,0 0.01,-0.023 0.011,-0.0286 -0.3604,0.94711 -0.6287,1.83087 -0.7958,2.67684 0,0 0,2.7e-4 0,2.7e-4 0,0 -0.01,0.0135 -0.01,0.017 0,0 -0.01,0.0142 -0.01,0.0175 -0.1467,0.8177 -0.2089,1.69244 -0.2029,2.63252 0,0 0,0.14201 0,0.15081 0,0 0.023,0.14641 0.023,0.14641 0.2188,1.44301 0.8603,2.73797 1.8361,3.49215 0,0 0.01,0.008 0.012,0.0107 0,0 0.01,0.008 0.012,0.009 0,0 0,-2.7e-4 0,-2.7e-4 0.9458,0.6941 2.496,0.77266 3.6067,0.44506 2.1309,-0.62891 5.8508,-1.49695 10.2977,-2.41157 4.4698,-0.91937 8.2178,-2.04727 9.6932,-2.50342 0,7e-5 0.01,0 0.01,-6.2e-4 1.0603,-0.30405 3.3599,-1.01926 6.0415,-1.88202 0,0 0,-4.1e-4 0,-4.1e-4 1.3579,-0.43782 2.8514,-0.94894 3.5814,-1.20859 0.7284,-0.25919 1.0436,-0.36559 1.3148,-0.48202 0.5532,-0.23786 1.0437,-0.7858 1.3223,-1.37699 0.2762,-0.58654 0.3977,-1.19641 0.4597,-1.83236 0.1287,-1.19754 0.082,-2.35565 -0.1747,-3.42204 -0.089,-0.37093 -0.4387,-1.71436 -1.1177,-4.32335 -0.6779,-2.60329 -1.1093,-4.29328 -1.2821,-5.00977 -0.3088,-1.28096 -0.9088,-2.39329 -1.7878,-3.05488 -0.862,-0.67298 -2.0003,-0.79625 -2.9951,-0.36905 -0.9852,0.4236 -2.0555,1.45674 -2.4127,2.6968 -0.3427,1.19141 -0.2752,2.45293 0.013,3.73457 0.1938,0.86093 0.3377,1.79755 0.4279,2.8114 0.056,0.63419 0.038,1.12493 0.041,1.65696 -0.4565,0.27482 -0.8869,0.55052 -1.4233,0.82269 -0.8255,0.41867 -2.1488,0.96344 -3.363,1.41742 -0.4844,0.18107 -1.1553,0.41745 -2.002,0.70444 -0.8365,0.28173 -1.7072,0.58429 -2.0615,0.70716 -1.882,0.65279 -4.0571,1.21976 -5.9754,1.40049 0,0 0,0 0,0 -1.2497,0.11419 -2.3589,0.094 -3.4038,0.015 1.7544,-6.83812 4.0107,-14.24007 6.2311,-22.38741 2.426,-8.9021 4.4361,-16.19271 6.3421,-21.92931 0,0 -0.01,0.0141 -0.01,0.0183 0.407,-1.18632 0.3881,-2.0258 0.4992,-2.89825 0.1247,-0.81235 0.1397,-1.62196 -0.046,-2.39391 -0.3727,-1.54602 -1.1952,-2.83164 -2.3267,-3.50502 -1.1571,-0.71115 -2.1431,-0.93458 -3.473,-0.40085 0,0 -0.076,0.0306 -0.076,0.0306 0,0 -0.065,0.0366 -0.072,0.0413 -1.3008,0.73309 -2.2262,1.2591 -3.5779,1.88446 -1.3546,0.59575 -2.4151,1.06105 -3.9827,1.60478 -1.5148,0.52535 -2.8899,0.92526 -4.9119,1.33634 -1.877,0.35408 -3.6204,0.55294 -5.9281,0.75575 -0.8891,-0.89783 -1.8923,-1.49377 -3.021,-1.16108 0,0 0,0 0,0 m -424.89996,28.82622 c -0.007,0.0107 -0.0141,0.0236 -0.0176,0.0298 -7.7e-4,0.007 -0.003,0.007 -0.003,0.007 0.006,-0.012 0.0131,-0.0244 0.0195,-0.0366 0,0 0,0 0,0"
       style="color:#000000;font-style:normal;font-variant:normal;font-weight:normal;font-stretch:normal;font-size:medium;line-height:1;font-family:'Hank BT';-inkscape-font-specification:'Hank BT';font-variant-ligatures:normal;font-variant-position:normal;font-variant-caps:normal;font-variant-numeric:normal;font-variant-alternates:normal;font-feature-settings:normal;text-indent:0;text-align:center;text-decoration:none;text-decoration-line:none;text-decoration-style:solid;text-decoration-color:#000000;letter-spacing:normal;word-spacing:normal;text-transform:none;writing-mode:lr-tb;direction:ltr;text-orientation:mixed;dominant-baseline:auto;baseline-shift:baseline;text-anchor:middle;white-space:normal;shape-padding:0;clip-rule:nonzero;display:inline;overflow:visible;visibility:visible;opacity:1;isolation:auto;mix-blend-mode:normal;color-interpolation:sRGB;color-interpolation-filters:linearRGB;solid-color:#000000;solid-opacity:1;vector-effect:none;fill:url(#linearGradient1936);fill-opacity:1;fill-rule:nonzero;stroke:none;stroke-width:9.99999905;stroke-linecap:square;stroke-linejoin:miter;stroke-miterlimit:4;stroke-dasharray:none;stroke-dashoffset:0;stroke-opacity:1;paint-order:normal;color-rendering:auto;image-rendering:auto;shape-rendering:auto;text-rendering:auto;enable-background:accumulate" />
  </g>
</svg>
